<?xml version="1.0" encoding="UTF-8"?><svg xmlns="http://www.w3.org/2000/svg" xmlns:xlink="http://www.w3.org/1999/xlink" contentScriptType="text/ecmascript" width="375pt" zoomAndPan="magnify" contentStyleType="text/css" viewBox="0 0 375 74.999997" height="74.999997pt" preserveAspectRatio="xMidYMid meet" version="1.2"><defs><g/></defs><g xml:id="surface1" id="surface1"><g style="fill:rgb(100%,100%,100%);fill-opacity:1;"><g transform="translate(24.179627, 56.511103)"><path style="stroke:none;" d="M 21.265625 -29.386719 L 4.703125 -6.625 C 4.167969 -5.824219 3.953125 -5.023438 3.953125 -4.273438 C 3.953125 -3.792969 4.007812 -3.3125 4.222656 -2.832031 C 4.433594 -2.296875 4.703125 -1.871094 5.074219 -1.441406 C 5.449219 -1.015625 5.929688 -0.640625 6.464844 -0.375 C 7 -0.105469 7.695312 0 8.441406 0 L 29.867188 0 C 30.617188 0 31.257812 -0.105469 31.789062 -0.375 C 32.324219 -0.640625 32.804688 -0.960938 33.179688 -1.390625 C 33.554688 -1.816406 33.820312 -2.242188 34.035156 -2.777344 C 34.25 -3.257812 34.355469 -3.738281 34.355469 -4.222656 C 34.355469 -4.703125 34.25 -5.183594 34.035156 -5.71875 C 33.820312 -6.199219 33.554688 -6.625 33.179688 -7.054688 C 32.753906 -7.425781 32.273438 -7.746094 31.738281 -8.015625 C 31.203125 -8.28125 30.5625 -8.441406 29.8125 -8.441406 L 16.992188 -8.441406 L 33.5 -31.148438 C 34.035156 -31.898438 34.300781 -32.699219 34.300781 -33.554688 C 34.300781 -33.980469 34.195312 -34.410156 34.035156 -34.941406 C 33.875 -35.425781 33.609375 -35.90625 33.285156 -36.332031 C 32.914062 -36.761719 32.433594 -37.082031 31.898438 -37.402344 C 31.363281 -37.722656 30.667969 -37.882812 29.921875 -37.882812 L 8.496094 -37.882812 C 7.746094 -37.882812 7.054688 -37.722656 6.519531 -37.453125 C 5.984375 -37.1875 5.503906 -36.867188 5.128906 -36.4375 C 4.703125 -36.011719 4.433594 -35.585938 4.222656 -35.101562 C 4.007812 -34.570312 3.953125 -34.089844 3.953125 -33.609375 C 3.953125 -33.125 4.007812 -32.644531 4.222656 -32.164062 C 4.433594 -31.628906 4.703125 -31.203125 5.074219 -30.777344 C 5.449219 -30.347656 5.929688 -30.027344 6.464844 -29.761719 C 7 -29.492188 7.695312 -29.386719 8.441406 -29.386719 Z M 21.265625 -29.386719 "/></g></g><g style="fill:rgb(36.079407%,88.238525%,90.19928%);fill-opacity:1;"><g transform="translate(61.847312, 56.511103)"><path style="stroke:none;" d="M 12.875 -33.609375 C 12.875 -34.035156 12.769531 -34.460938 12.609375 -34.996094 C 12.449219 -35.476562 12.183594 -35.957031 11.863281 -36.386719 C 11.488281 -36.8125 11.007812 -37.132812 10.472656 -37.453125 C 9.9375 -37.722656 9.242188 -37.882812 8.496094 -37.882812 C 7.746094 -37.882812 7.054688 -37.722656 6.519531 -37.453125 C 5.984375 -37.1875 5.503906 -36.867188 5.128906 -36.4375 C 4.703125 -36.011719 4.433594 -35.585938 4.222656 -35.101562 C 4.007812 -34.570312 3.953125 -34.089844 3.953125 -33.609375 L 3.953125 -4.222656 C 3.953125 -3.738281 4.007812 -3.257812 4.222656 -2.777344 C 4.433594 -2.242188 4.703125 -1.816406 5.074219 -1.390625 C 5.449219 -0.960938 5.929688 -0.585938 6.464844 -0.320312 C 7 -0.0546875 7.695312 0.0546875 8.441406 0.0546875 L 24.148438 0.0546875 C 24.898438 0.0546875 25.539062 -0.0546875 26.128906 -0.320312 C 26.660156 -0.585938 27.140625 -0.910156 27.515625 -1.335938 C 27.890625 -1.761719 28.15625 -2.191406 28.371094 -2.726562 C 28.53125 -3.207031 28.636719 -3.6875 28.636719 -4.167969 C 28.636719 -4.648438 28.53125 -5.128906 28.316406 -5.664062 C 28.105469 -6.144531 27.835938 -6.570312 27.464844 -7 C 27.035156 -7.375 26.554688 -7.695312 26.019531 -7.960938 C 25.484375 -8.226562 24.84375 -8.386719 24.097656 -8.386719 L 13.570312 -8.386719 C 13.464844 -8.386719 13.304688 -8.441406 13.144531 -8.546875 C 12.929688 -8.65625 12.875 -8.871094 12.875 -9.191406 Z M 12.875 -33.609375 "/></g></g><path style="fill:none;stroke-width:1;stroke-linecap:round;stroke-linejoin:miter;stroke:rgb(36.859131%,9.01947%,92.158508%);stroke-opacity:1;stroke-miterlimit:4;" d="M 0.499833 -0.0000700481 L 18.429515 -0.0000700481 " transform="matrix(7.488237,0,0,7.499999,18.163386,10.887244)"/><path style="fill:none;stroke-width:1;stroke-linecap:round;stroke-linejoin:miter;stroke:rgb(100%,87.059021%,34.899902%);stroke-opacity:1;stroke-miterlimit:4;" d="M 0.499973 -0.0000700481 L 9.662519 -0.0000700481 " transform="matrix(7.527674,0,0,7.499999,167.232459,10.887244)"/><path style="fill:none;stroke-width:1;stroke-linecap:round;stroke-linejoin:miter;stroke:rgb(100%,56.858826%,30.198669%);stroke-opacity:1;stroke-miterlimit:4;" d="M 0.499744 0.0000943167 L 13.530966 0.0000943167 " transform="matrix(7.484129,0,0,7.499999,255.576255,10.104761)"/><path style=" stroke:none;fill-rule:nonzero;fill:rgb(36.859131%,9.01947%,92.158508%);fill-opacity:1;" d="M 18.164062 4.089844 C 17.769531 4.089844 17.378906 4.128906 16.988281 4.203125 C 16.601562 4.28125 16.226562 4.394531 15.859375 4.546875 C 15.496094 4.699219 15.148438 4.882812 14.820312 5.101562 C 14.492188 5.320312 14.1875 5.570312 13.910156 5.851562 C 13.628906 6.128906 13.378906 6.433594 13.160156 6.761719 C 12.941406 7.089844 12.757812 7.4375 12.605469 7.800781 C 12.453125 8.167969 12.339844 8.542969 12.261719 8.929688 C 12.1875 9.320312 12.148438 9.710938 12.148438 10.105469 C 12.148438 10.5 12.1875 10.890625 12.261719 11.277344 C 12.339844 11.664062 12.453125 12.042969 12.605469 12.40625 C 12.757812 12.773438 12.941406 13.117188 13.160156 13.445312 C 13.378906 13.777344 13.628906 14.078125 13.910156 14.359375 C 14.1875 14.636719 14.492188 14.886719 14.820312 15.105469 C 15.148438 15.328125 15.496094 15.511719 15.859375 15.664062 C 16.226562 15.8125 16.601562 15.929688 16.988281 16.003906 C 17.378906 16.082031 17.769531 16.121094 18.164062 16.121094 C 18.558594 16.121094 18.949219 16.082031 19.335938 16.003906 C 19.722656 15.929688 20.101562 15.8125 20.464844 15.664062 C 20.832031 15.511719 21.175781 15.328125 21.503906 15.105469 C 21.835938 14.886719 22.136719 14.636719 22.417969 14.359375 C 22.695312 14.078125 22.945312 13.777344 23.164062 13.445312 C 23.386719 13.117188 23.570312 12.773438 23.722656 12.40625 C 23.871094 12.042969 23.988281 11.664062 24.0625 11.277344 C 24.140625 10.890625 24.179688 10.5 24.179688 10.105469 C 24.179688 9.710938 24.140625 9.320312 24.0625 8.929688 C 23.988281 8.542969 23.871094 8.167969 23.722656 7.800781 C 23.570312 7.4375 23.386719 7.089844 23.164062 6.761719 C 22.945312 6.433594 22.695312 6.128906 22.417969 5.851562 C 22.136719 5.570312 21.835938 5.320312 21.503906 5.101562 C 21.175781 4.882812 20.832031 4.699219 20.464844 4.546875 C 20.101562 4.394531 19.722656 4.28125 19.335938 4.203125 C 18.949219 4.128906 18.558594 4.089844 18.164062 4.089844 Z M 18.164062 4.089844 "/><path style=" stroke:none;fill-rule:nonzero;fill:rgb(100%,87.059021%,34.899902%);fill-opacity:1;" d="M 171.035156 4.871094 C 170.640625 4.871094 170.246094 4.910156 169.859375 4.988281 C 169.472656 5.0625 169.097656 5.179688 168.730469 5.328125 C 168.367188 5.480469 168.019531 5.664062 167.691406 5.886719 C 167.363281 6.105469 167.058594 6.355469 166.78125 6.632812 C 166.5 6.914062 166.25 7.214844 166.03125 7.542969 C 165.8125 7.875 165.628906 8.21875 165.476562 8.585938 C 165.324219 8.949219 165.210938 9.324219 165.132812 9.714844 C 165.054688 10.101562 165.019531 10.492188 165.019531 10.886719 C 165.019531 11.28125 165.054688 11.671875 165.132812 12.0625 C 165.210938 12.449219 165.324219 12.824219 165.476562 13.191406 C 165.628906 13.554688 165.8125 13.902344 166.03125 14.230469 C 166.25 14.558594 166.5 14.863281 166.78125 15.140625 C 167.058594 15.421875 167.363281 15.671875 167.691406 15.890625 C 168.019531 16.109375 168.367188 16.292969 168.730469 16.445312 C 169.097656 16.597656 169.472656 16.710938 169.859375 16.789062 C 170.246094 16.863281 170.640625 16.902344 171.035156 16.902344 C 171.429688 16.902344 171.820312 16.863281 172.207031 16.789062 C 172.59375 16.710938 172.972656 16.597656 173.335938 16.445312 C 173.703125 16.292969 174.046875 16.109375 174.375 15.890625 C 174.703125 15.671875 175.007812 15.421875 175.289062 15.140625 C 175.566406 14.863281 175.816406 14.558594 176.035156 14.230469 C 176.257812 13.902344 176.441406 13.554688 176.59375 13.191406 C 176.742188 12.824219 176.859375 12.449219 176.933594 12.0625 C 177.011719 11.671875 177.050781 11.28125 177.050781 10.886719 C 177.050781 10.492188 177.011719 10.101562 176.933594 9.714844 C 176.859375 9.324219 176.742188 8.949219 176.59375 8.585938 C 176.441406 8.21875 176.257812 7.875 176.035156 7.542969 C 175.816406 7.214844 175.566406 6.914062 175.289062 6.632812 C 175.007812 6.355469 174.703125 6.105469 174.375 5.886719 C 174.046875 5.664062 173.703125 5.480469 173.335938 5.328125 C 172.972656 5.179688 172.59375 5.0625 172.207031 4.988281 C 171.820312 4.910156 171.429688 4.871094 171.035156 4.871094 Z M 171.035156 4.871094 "/><path style=" stroke:none;fill-rule:nonzero;fill:rgb(100%,56.858826%,30.198669%);fill-opacity:1;" d="M 255.578125 4.089844 C 255.179688 4.089844 254.789062 4.128906 254.402344 4.203125 C 254.015625 4.28125 253.640625 4.394531 253.273438 4.546875 C 252.910156 4.699219 252.5625 4.882812 252.234375 5.101562 C 251.90625 5.320312 251.601562 5.570312 251.320312 5.851562 C 251.042969 6.128906 250.792969 6.433594 250.574219 6.761719 C 250.355469 7.089844 250.167969 7.4375 250.019531 7.800781 C 249.867188 8.167969 249.753906 8.542969 249.675781 8.929688 C 249.597656 9.320312 249.558594 9.710938 249.558594 10.105469 C 249.558594 10.5 249.597656 10.890625 249.675781 11.277344 C 249.753906 11.664062 249.867188 12.042969 250.019531 12.40625 C 250.167969 12.773438 250.355469 13.117188 250.574219 13.445312 C 250.792969 13.777344 251.042969 14.078125 251.320312 14.359375 C 251.601562 14.636719 251.90625 14.886719 252.234375 15.105469 C 252.5625 15.328125 252.910156 15.511719 253.273438 15.664062 C 253.640625 15.8125 254.015625 15.929688 254.402344 16.003906 C 254.789062 16.082031 255.179688 16.121094 255.578125 16.121094 C 255.972656 16.121094 256.363281 16.082031 256.75 16.003906 C 257.136719 15.929688 257.511719 15.8125 257.878906 15.664062 C 258.242188 15.511719 258.589844 15.328125 258.917969 15.105469 C 259.246094 14.886719 259.550781 14.636719 259.832031 14.359375 C 260.109375 14.078125 260.359375 13.777344 260.578125 13.445312 C 260.796875 13.117188 260.984375 12.773438 261.132812 12.40625 C 261.285156 12.042969 261.398438 11.664062 261.476562 11.277344 C 261.554688 10.890625 261.59375 10.5 261.59375 10.105469 C 261.59375 9.710938 261.554688 9.320312 261.476562 8.929688 C 261.398438 8.542969 261.285156 8.167969 261.132812 7.800781 C 260.984375 7.4375 260.796875 7.089844 260.578125 6.761719 C 260.359375 6.433594 260.109375 6.128906 259.832031 5.851562 C 259.550781 5.570312 259.246094 5.320312 258.917969 5.101562 C 258.589844 4.882812 258.242188 4.699219 257.878906 4.546875 C 257.511719 4.394531 257.136719 4.28125 256.75 4.203125 C 256.363281 4.128906 255.972656 4.089844 255.578125 4.089844 Z M 255.578125 4.089844 "/><path style=" stroke:none;fill-rule:nonzero;fill:rgb(54.899597%,32.159424%,100%);fill-opacity:1;" d="M 78.222656 30.199219 C 77.832031 30.199219 77.457031 30.273438 77.09375 30.421875 C 76.734375 30.570312 76.414062 30.785156 76.136719 31.0625 C 75.859375 31.339844 75.648438 31.65625 75.5 32.019531 C 75.347656 32.378906 75.273438 32.753906 75.273438 33.144531 C 75.273438 33.539062 75.347656 33.914062 75.5 34.273438 C 75.648438 34.636719 75.859375 34.953125 76.136719 35.230469 C 76.414062 35.507812 76.734375 35.71875 77.09375 35.871094 C 77.457031 36.019531 77.832031 36.09375 78.222656 36.09375 C 78.613281 36.09375 78.988281 36.019531 79.351562 35.871094 C 79.710938 35.71875 80.03125 35.507812 80.308594 35.230469 C 80.582031 34.953125 80.796875 34.636719 80.945312 34.273438 C 81.097656 33.914062 81.171875 33.539062 81.171875 33.144531 C 81.171875 32.753906 81.097656 32.378906 80.945312 32.019531 C 80.796875 31.65625 80.582031 31.339844 80.308594 31.0625 C 80.03125 30.785156 79.710938 30.570312 79.351562 30.421875 C 78.988281 30.273438 78.613281 30.199219 78.222656 30.199219 Z M 78.222656 30.199219 "/><path style=" stroke:none;fill-rule:nonzero;fill:rgb(54.899597%,32.159424%,100%);fill-opacity:1;" d="M 86.574219 45.359375 C 86.773438 45.570312 86.925781 45.824219 87.035156 46.121094 C 87.453125 47.285156 86.859375 48.570312 85.691406 48.992188 C 82.601562 50.125 79.164062 49.300781 76.925781 46.890625 C 74.6875 44.484375 74.113281 40.996094 75.464844 37.988281 C 75.96875 36.855469 77.300781 36.347656 78.425781 36.859375 C 79.554688 37.363281 80.066406 38.695312 79.550781 39.816406 C 78.949219 41.167969 79.210938 42.75 80.21875 43.832031 C 81.222656 44.917969 82.773438 45.28125 84.164062 44.78125 C 85.027344 44.460938 85.980469 44.71875 86.574219 45.359375 Z M 86.574219 45.359375 "/><path style=" stroke:none;fill-rule:nonzero;fill:rgb(100%,87.059021%,34.899902%);fill-opacity:1;" d="M 83.375 49.699219 C 83.222656 49.53125 83.109375 49.328125 83.027344 49.09375 C 82.71875 48.171875 83.207031 47.175781 84.128906 46.863281 C 86.574219 46.027344 89.257812 46.734375 90.96875 48.660156 C 92.683594 50.589844 93.074219 53.335938 91.964844 55.671875 C 91.546875 56.550781 90.492188 56.929688 89.621094 56.507812 C 88.742188 56.09375 88.367188 55.039062 88.789062 54.167969 C 89.285156 53.117188 89.109375 51.871094 88.335938 51.003906 C 87.566406 50.136719 86.355469 49.824219 85.253906 50.191406 C 84.574219 50.429688 83.832031 50.210938 83.375 49.699219 Z M 83.375 49.699219 "/><path style=" stroke:none;fill-rule:nonzero;fill:rgb(100%,56.858826%,30.198669%);fill-opacity:1;" d="M 87.769531 38.589844 C 88.023438 38.601562 88.277344 38.660156 88.53125 38.777344 C 89.515625 39.234375 89.945312 40.398438 89.488281 41.386719 C 88.285156 44.011719 85.644531 45.640625 82.765625 45.546875 C 79.882812 45.453125 77.355469 43.65625 76.316406 40.957031 C 75.925781 39.941406 76.429688 38.796875 77.441406 38.414062 C 78.457031 38.019531 79.597656 38.527344 79.980469 39.542969 C 80.453125 40.75 81.597656 41.566406 82.894531 41.609375 C 84.191406 41.648438 85.375 40.910156 85.921875 39.734375 C 86.257812 39 87.003906 38.566406 87.769531 38.589844 Z M 87.769531 38.589844 "/><g clip-rule="nonzero"><path style=" stroke:none;fill-rule:nonzero;fill:rgb(100%,100%,100%);fill-opacity:1;" d="M 91.007812 38.019531 C 90.953125 38.019531 90.90625 37.972656 90.90625 37.914062 C 90.90625 37.914062 90.898438 37.542969 90.519531 37.15625 C 90.140625 36.769531 89.773438 36.769531 89.761719 36.769531 C 89.703125 36.769531 89.65625 36.722656 89.65625 36.667969 C 89.65625 36.609375 89.699219 36.5625 89.757812 36.5625 C 89.777344 36.558594 90.222656 36.554688 90.667969 37.007812 C 91.109375 37.460938 91.113281 37.898438 91.113281 37.914062 C 91.113281 37.972656 91.066406 38.019531 91.007812 38.019531 Z M 91.007812 38.019531 "/></g><path style=" stroke:none;fill-rule:nonzero;fill:rgb(100%,100%,100%);fill-opacity:1;" d="M 90.382812 38.019531 C 90.328125 38.019531 90.28125 37.972656 90.28125 37.914062 C 90.28125 37.910156 90.273438 37.746094 90.101562 37.574219 C 89.929688 37.402344 89.765625 37.394531 89.757812 37.394531 C 89.703125 37.394531 89.65625 37.347656 89.65625 37.289062 C 89.65625 37.234375 89.703125 37.1875 89.757812 37.1875 C 89.769531 37.1875 90.015625 37.1875 90.25 37.425781 C 90.484375 37.660156 90.488281 37.90625 90.488281 37.914062 C 90.488281 37.972656 90.441406 38.019531 90.382812 38.019531 Z M 90.382812 38.019531 "/><path style=" stroke:none;fill-rule:nonzero;fill:rgb(100%,100%,100%);fill-opacity:1;" d="M 89.03125 38.851562 C 89.03125 38.992188 88.960938 39.0625 88.820312 39.0625 C 88.683594 39.0625 88.613281 38.992188 88.613281 38.851562 C 88.613281 38.714844 88.683594 38.644531 88.820312 38.644531 C 88.960938 38.644531 89.03125 38.714844 89.03125 38.851562 Z M 89.03125 38.851562 "/><g clip-rule="nonzero"><path style=" stroke:none;fill-rule:nonzero;fill:rgb(100%,100%,100%);fill-opacity:1;" d="M 90.363281 38.476562 L 89.199219 37.3125 C 89.039062 37.152344 88.757812 37.148438 88.582031 37.3125 L 86.03125 39.875 C 85.863281 40.039062 85.863281 40.308594 86.03125 40.488281 L 87.195312 41.65625 C 87.277344 41.734375 87.382812 41.78125 87.5 41.78125 C 87.613281 41.78125 87.726562 41.738281 87.8125 41.65625 L 90.371094 39.097656 C 90.53125 38.914062 90.527344 38.640625 90.363281 38.476562 Z M 86.945312 40.3125 C 86.832031 40.3125 86.738281 40.21875 86.738281 40.101562 C 86.738281 39.988281 86.832031 39.894531 86.945312 39.894531 C 87.0625 39.894531 87.15625 39.988281 87.15625 40.101562 C 87.15625 40.21875 87.0625 40.3125 86.945312 40.3125 Z M 87.257812 39.582031 C 87.257812 39.46875 87.351562 39.375 87.46875 39.375 C 87.582031 39.375 87.675781 39.46875 87.675781 39.582031 C 87.675781 39.699219 87.582031 39.789062 87.46875 39.789062 C 87.351562 39.789062 87.257812 39.699219 87.257812 39.582031 Z M 87.570312 40.9375 C 87.457031 40.9375 87.363281 40.84375 87.363281 40.726562 C 87.363281 40.613281 87.457031 40.519531 87.570312 40.519531 C 87.6875 40.519531 87.78125 40.613281 87.78125 40.726562 C 87.78125 40.84375 87.6875 40.9375 87.570312 40.9375 Z M 88.09375 40.414062 C 87.976562 40.414062 87.882812 40.324219 87.882812 40.207031 C 87.882812 40.09375 87.976562 40 88.09375 40 C 88.207031 40 88.300781 40.09375 88.300781 40.207031 C 88.300781 40.324219 88.207031 40.414062 88.09375 40.414062 Z M 88.820312 39.582031 C 88.417969 39.582031 88.09375 39.257812 88.09375 38.851562 C 88.09375 38.449219 88.417969 38.125 88.820312 38.125 C 89.226562 38.125 89.550781 38.449219 89.550781 38.851562 C 89.550781 39.257812 89.226562 39.582031 88.820312 39.582031 Z M 88.820312 39.582031 "/></g><g clip-rule="nonzero"><g clip-rule="nonzero"><g clip-rule="nonzero"><g clip-rule="nonzero"><g clip-rule="nonzero"><path style=" stroke:none;fill-rule:nonzero;fill:rgb(100%,100%,100%);fill-opacity:1;" d="M 98.265625 60.09375 C 98.203125 60.292969 97.800781 60.320312 97.652344 60.3125 C 96.859375 60.269531 96.007812 60.070312 94.804688 59.738281 L 88.945312 57.882812 C 88.636719 57.785156 88.464844 57.46875 88.554688 57.179688 L 88.652344 56.878906 L 90.328125 57.410156 L 95.070312 58.914062 C 96.226562 59.226562 97.527344 59.570312 98.339844 59.621094 C 98.355469 59.628906 98.371094 59.640625 98.378906 59.65625 C 98.390625 59.675781 98.390625 59.695312 98.386719 59.714844 Z M 89.878906 54.617188 C 89.917969 54.628906 89.953125 54.65625 89.96875 54.695312 L 90.085938 55.140625 C 90.085938 55.144531 90.089844 55.144531 90.089844 55.148438 C 90.191406 55.40625 90.367188 55.585938 90.601562 55.675781 L 91.234375 55.875 C 92 56.117188 92.261719 55.957031 92.515625 55.800781 C 92.589844 55.753906 92.664062 55.707031 92.75 55.675781 C 92.945312 55.597656 93.09375 55.570312 93.21875 55.566406 C 93.035156 55.640625 92.871094 55.742188 92.714844 55.847656 C 92.359375 56.074219 92.027344 56.292969 91.507812 56.125 L 90.632812 55.851562 C 90.460938 55.796875 90.242188 55.707031 90.089844 55.527344 C 90.03125 55.457031 89.867188 55.09375 89.800781 54.625 C 89.824219 54.613281 89.851562 54.609375 89.878906 54.617188 Z M 92.941406 54.816406 C 93.0625 54.757812 93.175781 54.824219 93.28125 55.007812 L 93.523438 55.445312 C 93.289062 55.386719 93.0625 55.382812 92.683594 55.527344 C 92.605469 55.558594 92.539062 55.59375 92.480469 55.632812 C 92.503906 55.292969 92.691406 54.957031 92.941406 54.816406 Z M 94.078125 55.957031 L 93.792969 56.132812 C 93.765625 56.144531 93.746094 56.160156 93.726562 56.175781 C 93.566406 56.023438 93.417969 55.871094 93.273438 55.71875 C 93.375 55.675781 93.480469 55.644531 93.601562 55.632812 C 93.613281 55.636719 93.625 55.640625 93.636719 55.644531 C 93.746094 55.679688 93.851562 55.742188 93.9375 55.824219 C 93.980469 55.867188 94.027344 55.910156 94.078125 55.957031 Z M 96.277344 57.710938 L 95.808594 58.019531 C 95.726562 58.054688 95.664062 58.035156 95.640625 57.996094 C 95.617188 57.953125 95.648438 57.894531 95.734375 57.851562 L 96.117188 57.601562 L 96.167969 57.636719 C 96.203125 57.664062 96.238281 57.6875 96.277344 57.710938 Z M 96.632812 57.964844 C 96.507812 58.046875 96.40625 58.132812 96.308594 58.269531 C 96.210938 58.210938 96.113281 58.144531 96.015625 58.078125 L 96.421875 57.8125 C 96.496094 57.863281 96.566406 57.914062 96.632812 57.964844 Z M 95.976562 57.5 L 95.644531 57.714844 C 95.617188 57.730469 95.59375 57.746094 95.574219 57.765625 C 95.496094 57.707031 95.417969 57.648438 95.339844 57.589844 L 95.761719 57.335938 C 95.847656 57.402344 95.921875 57.457031 95.976562 57.5 Z M 95.625 57.230469 L 95.195312 57.488281 C 95.113281 57.53125 95.046875 57.511719 95.023438 57.46875 C 94.996094 57.425781 95.03125 57.371094 95.113281 57.328125 L 95.46875 57.109375 C 95.523438 57.152344 95.574219 57.191406 95.625 57.230469 Z M 95.332031 57.003906 L 95.027344 57.1875 C 94.984375 57.210938 94.953125 57.234375 94.929688 57.261719 C 94.855469 57.199219 94.78125 57.136719 94.703125 57.074219 L 95.113281 56.828125 C 95.1875 56.886719 95.261719 56.945312 95.332031 57.003906 Z M 94.976562 56.71875 L 94.578125 56.960938 C 94.496094 57.003906 94.425781 56.984375 94.40625 56.945312 C 94.394531 56.925781 94.394531 56.90625 94.40625 56.882812 C 94.40625 56.875 94.410156 56.871094 94.414062 56.867188 C 94.417969 56.863281 94.417969 56.863281 94.417969 56.859375 C 94.421875 56.855469 94.425781 56.851562 94.429688 56.851562 C 94.429688 56.847656 94.433594 56.84375 94.441406 56.839844 C 94.441406 56.835938 94.441406 56.835938 94.441406 56.835938 C 94.457031 56.824219 94.472656 56.8125 94.496094 56.800781 L 94.828125 56.597656 C 94.878906 56.640625 94.925781 56.679688 94.976562 56.71875 Z M 94.695312 56.488281 L 94.410156 56.664062 C 94.386719 56.671875 94.371094 56.683594 94.351562 56.699219 C 94.34375 56.703125 94.335938 56.710938 94.328125 56.71875 C 94.324219 56.722656 94.316406 56.726562 94.3125 56.730469 C 94.246094 56.671875 94.175781 56.605469 94.101562 56.535156 L 94.476562 56.308594 C 94.550781 56.367188 94.621094 56.429688 94.695312 56.488281 Z M 94.347656 56.199219 L 93.960938 56.433594 C 93.953125 56.4375 93.941406 56.441406 93.933594 56.445312 C 93.933594 56.445312 93.929688 56.445312 93.929688 56.445312 C 93.859375 56.46875 93.808594 56.449219 93.789062 56.417969 C 93.765625 56.378906 93.785156 56.320312 93.878906 56.269531 L 94.207031 56.074219 C 94.25 56.113281 94.300781 56.15625 94.347656 56.199219 Z M 90.433594 57.277344 C 90.460938 56.269531 89.71875 55.664062 89.3125 55.40625 C 89.339844 55.382812 89.363281 55.359375 89.390625 55.335938 C 89.527344 55.222656 89.550781 55.144531 89.582031 55.042969 L 89.589844 55.023438 C 89.601562 54.984375 89.628906 54.898438 89.667969 54.8125 C 89.742188 55.203125 89.878906 55.527344 89.960938 55.625 C 90.140625 55.839844 90.390625 55.9375 90.585938 56 L 91.457031 56.277344 C 92.054688 56.464844 92.4375 56.21875 92.808594 55.980469 C 92.914062 55.910156 93.015625 55.847656 93.121094 55.789062 C 93.285156 55.960938 93.449219 56.132812 93.628906 56.304688 C 93.605469 56.371094 93.613281 56.4375 93.644531 56.492188 C 93.671875 56.539062 93.71875 56.582031 93.785156 56.601562 C 93.828125 56.613281 93.882812 56.617188 93.941406 56.605469 C 94.046875 56.703125 94.144531 56.792969 94.234375 56.875 C 94.226562 56.925781 94.238281 56.976562 94.261719 57.015625 C 94.289062 57.066406 94.339844 57.109375 94.402344 57.128906 C 94.441406 57.140625 94.488281 57.144531 94.535156 57.140625 C 94.640625 57.230469 94.746094 57.320312 94.851562 57.40625 C 94.847656 57.457031 94.855469 57.503906 94.878906 57.542969 C 94.90625 57.59375 94.957031 57.632812 95.019531 57.65625 C 95.066406 57.667969 95.117188 57.671875 95.171875 57.660156 C 95.273438 57.742188 95.378906 57.816406 95.480469 57.894531 C 95.457031 57.957031 95.46875 58.019531 95.496094 58.070312 C 95.527344 58.121094 95.578125 58.164062 95.640625 58.183594 C 95.707031 58.203125 95.785156 58.199219 95.863281 58.167969 C 95.984375 58.25 96.105469 58.332031 96.222656 58.40625 C 96.144531 58.546875 96.0625 58.730469 95.972656 58.992188 C 95.683594 58.914062 95.394531 58.839844 95.113281 58.761719 Z M 88.699219 56.726562 L 88.867188 56.199219 C 88.929688 55.941406 89.042969 55.714844 89.203125 55.523438 C 89.570312 55.75 90.269531 56.304688 90.269531 57.226562 Z M 98.289062 59.457031 C 97.730469 59.414062 96.941406 59.238281 96.132812 59.03125 C 96.378906 58.347656 96.53125 58.21875 96.773438 58.066406 C 96.984375 58.214844 97.316406 58.417969 97.523438 58.53125 C 97.996094 58.789062 98.382812 59.039062 98.289062 59.457031 Z M 98.523438 59.585938 C 98.503906 59.550781 98.480469 59.523438 98.449219 59.503906 C 98.582031 58.929688 97.996094 58.605469 97.601562 58.394531 C 97.386719 58.273438 97.015625 58.046875 96.820312 57.902344 C 96.816406 57.902344 96.816406 57.898438 96.8125 57.898438 C 96.652344 57.777344 96.460938 57.648438 96.261719 57.507812 L 96.171875 57.449219 C 96.15625 57.4375 94.6875 56.332031 94.054688 55.714844 C 93.964844 55.628906 93.859375 55.5625 93.746094 55.515625 L 93.429688 54.9375 C 93.277344 54.671875 93.070312 54.574219 92.859375 54.679688 C 92.527344 54.863281 92.300781 55.300781 92.3125 55.734375 C 92.105469 55.847656 91.867188 55.910156 91.285156 55.726562 L 90.65625 55.527344 C 90.425781 55.4375 90.304688 55.246094 90.246094 55.101562 L 90.128906 54.65625 C 90.128906 54.652344 90.125 54.648438 90.125 54.644531 C 90.089844 54.554688 90.011719 54.488281 89.917969 54.464844 C 89.832031 54.441406 89.742188 54.457031 89.679688 54.507812 C 89.558594 54.605469 89.480469 54.808594 89.429688 54.976562 L 89.425781 54.992188 C 89.394531 55.082031 89.382812 55.128906 89.277344 55.214844 C 88.992188 55.453125 88.796875 55.78125 88.707031 56.152344 L 88.398438 57.128906 C 88.28125 57.503906 88.503906 57.910156 88.894531 58.03125 L 94.761719 59.890625 C 95.976562 60.226562 96.839844 60.425781 97.648438 60.472656 C 97.671875 60.472656 98.3125 60.5 98.425781 60.140625 L 98.542969 59.765625 C 98.5625 59.707031 98.554688 59.640625 98.523438 59.585938 "/></g></g></g></g></g><path style=" stroke:none;fill-rule:nonzero;fill:rgb(36.079407%,88.238525%,90.19928%);fill-opacity:1;" d="M 231.464844 23.824219 C 231.464844 23.402344 231.570312 22.980469 231.726562 22.449219 C 231.886719 21.972656 232.148438 21.496094 232.464844 21.066406 C 232.835938 20.644531 233.3125 20.328125 233.839844 20.007812 C 234.367188 19.742188 235.054688 19.582031 235.792969 19.582031 C 236.535156 19.582031 237.21875 19.742188 237.746094 20.007812 C 238.277344 20.273438 238.75 20.589844 239.121094 21.019531 C 239.542969 21.441406 239.808594 21.863281 240.019531 22.34375 C 240.230469 22.871094 240.285156 23.347656 240.285156 23.824219 L 240.285156 53 C 240.285156 53.480469 240.230469 53.960938 240.019531 54.4375 C 239.808594 54.96875 239.542969 55.390625 239.175781 55.8125 C 238.804688 56.238281 238.332031 56.613281 237.800781 56.875 C 237.273438 57.140625 236.585938 57.246094 235.847656 57.246094 L 220.320312 57.246094 C 219.578125 57.246094 218.945312 57.140625 218.363281 56.875 C 217.835938 56.613281 217.363281 56.289062 216.992188 55.867188 C 216.621094 55.445312 216.359375 55.019531 216.144531 54.488281 C 215.988281 54.007812 215.882812 53.53125 215.882812 53.054688 C 215.882812 52.578125 215.988281 52.101562 216.199219 51.570312 C 216.410156 51.09375 216.675781 50.671875 217.042969 50.242188 C 217.46875 49.871094 217.941406 49.554688 218.472656 49.289062 C 219 49.027344 219.632812 48.867188 220.371094 48.867188 L 230.777344 48.867188 C 230.882812 48.867188 231.039062 48.8125 231.199219 48.707031 C 231.410156 48.597656 231.464844 48.386719 231.464844 48.066406 Z M 231.464844 23.824219 "/><path style=" stroke:none;fill-rule:nonzero;fill:rgb(100%,87.059021%,34.899902%);fill-opacity:1;" d="M 228.003906 31.070312 C 228.390625 31.070312 228.761719 31.144531 229.121094 31.289062 C 229.476562 31.441406 229.792969 31.652344 230.066406 31.925781 C 230.339844 32.203125 230.550781 32.515625 230.695312 32.875 C 230.847656 33.234375 230.921875 33.609375 230.921875 33.996094 C 230.921875 34.386719 230.847656 34.757812 230.695312 35.117188 C 230.550781 35.476562 230.339844 35.792969 230.066406 36.0625 C 229.792969 36.339844 229.476562 36.554688 229.121094 36.699219 C 228.761719 36.847656 228.390625 36.925781 228.003906 36.925781 C 227.617188 36.925781 227.246094 36.847656 226.886719 36.699219 C 226.535156 36.554688 226.214844 36.339844 225.941406 36.0625 C 225.671875 35.792969 225.460938 35.476562 225.3125 35.117188 C 225.164062 34.757812 225.089844 34.386719 225.089844 33.996094 C 225.089844 33.609375 225.164062 33.234375 225.3125 32.875 C 225.460938 32.515625 225.671875 32.203125 225.941406 31.925781 C 226.214844 31.652344 226.535156 31.441406 226.886719 31.289062 C 227.246094 31.144531 227.617188 31.070312 228.003906 31.070312 Z M 228.003906 31.070312 "/><path style=" stroke:none;fill-rule:nonzero;fill:rgb(54.899597%,32.159424%,100%);fill-opacity:1;" d="M 219.75 46.121094 C 219.554688 46.328125 219.402344 46.585938 219.292969 46.875 C 218.878906 48.035156 219.46875 49.308594 220.621094 49.726562 C 223.675781 50.855469 227.074219 50.035156 229.285156 47.644531 C 231.5 45.253906 232.066406 41.789062 230.730469 38.800781 C 230.234375 37.675781 228.914062 37.171875 227.804688 37.679688 C 226.6875 38.183594 226.183594 39.503906 226.691406 40.621094 C 227.285156 41.964844 227.027344 43.53125 226.035156 44.609375 C 225.039062 45.683594 223.503906 46.042969 222.132812 45.546875 C 221.277344 45.226562 220.335938 45.484375 219.75 46.121094 Z M 219.75 46.121094 "/><path style=" stroke:none;fill-rule:nonzero;fill:rgb(100%,87.059021%,34.899902%);fill-opacity:1;" d="M 222.910156 50.429688 C 223.0625 50.261719 223.171875 50.0625 223.253906 49.828125 C 223.558594 48.914062 223.078125 47.921875 222.164062 47.617188 C 219.75 46.785156 217.09375 47.488281 215.402344 49.402344 C 213.707031 51.3125 213.324219 54.039062 214.417969 56.359375 C 214.832031 57.230469 215.875 57.609375 216.738281 57.1875 C 217.605469 56.777344 217.976562 55.730469 217.558594 54.867188 C 217.074219 53.824219 217.246094 52.585938 218.007812 51.722656 C 218.769531 50.863281 219.964844 50.554688 221.054688 50.921875 C 221.726562 51.15625 222.460938 50.941406 222.910156 50.429688 Z M 222.910156 50.429688 "/><path style=" stroke:none;fill-rule:nonzero;fill:rgb(100%,56.858826%,30.198669%);fill-opacity:1;" d="M 218.566406 39.402344 C 218.316406 39.410156 218.066406 39.472656 217.8125 39.585938 C 216.839844 40.039062 216.414062 41.199219 216.867188 42.175781 C 218.058594 44.78125 220.667969 46.398438 223.511719 46.304688 C 226.363281 46.214844 228.863281 44.429688 229.890625 41.75 C 230.273438 40.746094 229.777344 39.605469 228.777344 39.226562 C 227.773438 38.835938 226.644531 39.335938 226.265625 40.347656 C 225.800781 41.542969 224.667969 42.355469 223.386719 42.398438 C 222.105469 42.441406 220.933594 41.707031 220.394531 40.539062 C 220.066406 39.808594 219.324219 39.375 218.566406 39.402344 Z M 218.566406 39.402344 "/><g clip-rule="nonzero"><path style=" stroke:none;fill-rule:nonzero;fill:rgb(100%,100%,100%);fill-opacity:1;" d="M 215.367188 38.832031 C 215.417969 38.832031 215.464844 38.785156 215.464844 38.730469 C 215.464844 38.730469 215.472656 38.359375 215.847656 37.976562 C 216.222656 37.59375 216.585938 37.59375 216.597656 37.59375 C 216.65625 37.59375 216.703125 37.550781 216.703125 37.492188 C 216.703125 37.4375 216.660156 37.386719 216.601562 37.386719 C 216.582031 37.386719 216.140625 37.378906 215.703125 37.832031 C 215.265625 38.28125 215.261719 38.714844 215.261719 38.730469 C 215.261719 38.785156 215.308594 38.832031 215.367188 38.832031 Z M 215.367188 38.832031 "/></g><path style=" stroke:none;fill-rule:nonzero;fill:rgb(100%,100%,100%);fill-opacity:1;" d="M 215.984375 38.832031 C 216.039062 38.832031 216.082031 38.785156 216.082031 38.730469 C 216.082031 38.726562 216.089844 38.5625 216.261719 38.390625 C 216.429688 38.21875 216.59375 38.210938 216.601562 38.210938 C 216.65625 38.210938 216.703125 38.167969 216.703125 38.109375 C 216.703125 38.054688 216.65625 38.007812 216.601562 38.007812 C 216.589844 38.007812 216.351562 38.011719 216.113281 38.242188 C 215.882812 38.480469 215.878906 38.722656 215.878906 38.730469 C 215.878906 38.785156 215.925781 38.832031 215.984375 38.832031 Z M 215.984375 38.832031 "/><path style=" stroke:none;fill-rule:nonzero;fill:rgb(100%,100%,100%);fill-opacity:1;" d="M 217.320312 39.664062 C 217.320312 39.800781 217.390625 39.867188 217.527344 39.867188 C 217.664062 39.867188 217.734375 39.800781 217.734375 39.664062 C 217.734375 39.523438 217.664062 39.453125 217.527344 39.453125 C 217.390625 39.453125 217.320312 39.523438 217.320312 39.664062 Z M 217.320312 39.664062 "/><g clip-rule="nonzero"><path style=" stroke:none;fill-rule:nonzero;fill:rgb(100%,100%,100%);fill-opacity:1;" d="M 216.003906 39.289062 L 217.152344 38.132812 C 217.3125 37.972656 217.589844 37.96875 217.761719 38.132812 L 220.285156 40.675781 C 220.453125 40.839844 220.453125 41.105469 220.285156 41.289062 L 219.132812 42.445312 C 219.054688 42.523438 218.949219 42.566406 218.832031 42.566406 C 218.722656 42.566406 218.613281 42.523438 218.523438 42.445312 L 215.996094 39.902344 C 215.839844 39.722656 215.839844 39.449219 216.003906 39.289062 Z M 219.382812 41.109375 C 219.492188 41.109375 219.585938 41.015625 219.585938 40.902344 C 219.585938 40.789062 219.492188 40.695312 219.382812 40.695312 C 219.265625 40.695312 219.171875 40.789062 219.171875 40.902344 C 219.171875 41.015625 219.265625 41.109375 219.382812 41.109375 Z M 219.074219 40.382812 C 219.074219 40.273438 218.980469 40.179688 218.863281 40.179688 C 218.753906 40.179688 218.660156 40.273438 218.660156 40.382812 C 218.660156 40.5 218.753906 40.59375 218.863281 40.59375 C 218.980469 40.59375 219.074219 40.5 219.074219 40.382812 Z M 218.765625 41.730469 C 218.875 41.730469 218.96875 41.636719 218.96875 41.523438 C 218.96875 41.410156 218.875 41.316406 218.765625 41.316406 C 218.648438 41.316406 218.554688 41.410156 218.554688 41.523438 C 218.554688 41.636719 218.648438 41.730469 218.765625 41.730469 Z M 218.246094 41.214844 C 218.363281 41.214844 218.453125 41.121094 218.453125 41.003906 C 218.453125 40.890625 218.363281 40.800781 218.246094 40.800781 C 218.132812 40.800781 218.042969 40.890625 218.042969 41.003906 C 218.042969 41.121094 218.132812 41.214844 218.246094 41.214844 Z M 217.527344 40.382812 C 217.925781 40.382812 218.246094 40.0625 218.246094 39.664062 C 218.246094 39.265625 217.925781 38.9375 217.527344 38.9375 C 217.125 38.9375 216.804688 39.265625 216.804688 39.664062 C 216.804688 40.0625 217.125 40.382812 217.527344 40.382812 Z M 217.527344 40.382812 "/></g><g clip-rule="nonzero"><g clip-rule="nonzero"><g clip-rule="nonzero"><g clip-rule="nonzero"><g clip-rule="nonzero"><path style=" stroke:none;fill-rule:nonzero;fill:rgb(100%,87.059021%,34.899902%);fill-opacity:1;" d="M 208.191406 60.75 C 208.253906 60.945312 208.652344 60.972656 208.800781 60.96875 C 209.582031 60.921875 210.421875 60.726562 211.613281 60.398438 L 217.40625 58.554688 C 217.710938 58.457031 217.878906 58.148438 217.789062 57.855469 L 217.695312 57.558594 L 216.039062 58.085938 L 211.347656 59.578125 C 210.207031 59.890625 208.921875 60.230469 208.117188 60.28125 C 208.101562 60.289062 208.085938 60.300781 208.078125 60.316406 C 208.066406 60.335938 208.066406 60.351562 208.070312 60.371094 Z M 216.480469 55.3125 C 216.441406 55.324219 216.40625 55.351562 216.394531 55.390625 L 216.277344 55.832031 C 216.277344 55.835938 216.273438 55.839844 216.273438 55.84375 C 216.171875 56.09375 216 56.273438 215.765625 56.363281 L 215.140625 56.5625 C 214.382812 56.800781 214.125 56.640625 213.875 56.488281 C 213.800781 56.441406 213.726562 56.398438 213.644531 56.363281 C 213.449219 56.289062 213.304688 56.257812 213.179688 56.253906 C 213.363281 56.328125 213.523438 56.433594 213.679688 56.535156 C 214.03125 56.761719 214.359375 56.976562 214.875 56.8125 L 215.734375 56.539062 C 215.90625 56.484375 216.121094 56.398438 216.273438 56.214844 C 216.332031 56.148438 216.492188 55.785156 216.558594 55.320312 C 216.535156 55.308594 216.507812 55.304688 216.480469 55.3125 Z M 213.453125 55.511719 C 213.335938 55.457031 213.222656 55.515625 213.117188 55.703125 L 212.882812 56.132812 C 213.113281 56.074219 213.335938 56.070312 213.707031 56.214844 C 213.785156 56.246094 213.851562 56.285156 213.914062 56.320312 C 213.886719 55.984375 213.703125 55.648438 213.453125 55.511719 Z M 212.332031 56.644531 L 212.613281 56.816406 C 212.640625 56.832031 212.660156 56.847656 212.679688 56.859375 C 212.835938 56.707031 212.984375 56.554688 213.125 56.40625 C 213.027344 56.363281 212.921875 56.332031 212.804688 56.320312 C 212.789062 56.324219 212.777344 56.328125 212.765625 56.332031 C 212.660156 56.371094 212.554688 56.429688 212.46875 56.511719 C 212.425781 56.554688 212.378906 56.597656 212.332031 56.644531 Z M 210.160156 58.386719 L 210.621094 58.691406 C 210.699219 58.726562 210.761719 58.710938 210.785156 58.671875 C 210.808594 58.625 210.777344 58.570312 210.691406 58.523438 L 210.320312 58.273438 L 210.265625 58.308594 C 210.230469 58.335938 210.195312 58.359375 210.160156 58.386719 Z M 209.804688 58.636719 C 209.929688 58.71875 210.027344 58.800781 210.125 58.941406 C 210.222656 58.878906 210.320312 58.8125 210.414062 58.746094 L 210.011719 58.484375 C 209.941406 58.535156 209.871094 58.585938 209.804688 58.636719 Z M 210.453125 58.175781 L 210.78125 58.390625 C 210.808594 58.402344 210.832031 58.421875 210.855469 58.4375 C 210.929688 58.378906 211.003906 58.324219 211.082031 58.261719 L 210.664062 58.011719 C 210.582031 58.078125 210.507812 58.136719 210.453125 58.175781 Z M 210.804688 57.90625 L 211.226562 58.164062 C 211.308594 58.203125 211.371094 58.183594 211.394531 58.148438 C 211.421875 58.101562 211.386719 58.046875 211.308594 58.003906 L 210.957031 57.789062 C 210.902344 57.828125 210.851562 57.867188 210.804688 57.90625 Z M 211.089844 57.679688 L 211.390625 57.867188 C 211.433594 57.886719 211.464844 57.914062 211.488281 57.9375 C 211.5625 57.878906 211.636719 57.816406 211.710938 57.75 L 211.308594 57.507812 C 211.234375 57.570312 211.160156 57.628906 211.089844 57.679688 Z M 211.441406 57.402344 L 211.835938 57.640625 C 211.921875 57.679688 211.988281 57.660156 212.007812 57.625 C 212.015625 57.609375 212.015625 57.585938 212.007812 57.5625 C 212.007812 57.558594 212.003906 57.550781 212 57.546875 C 212 57.546875 211.996094 57.542969 211.996094 57.539062 C 211.992188 57.539062 211.988281 57.535156 211.988281 57.53125 C 211.984375 57.527344 211.980469 57.523438 211.976562 57.519531 C 211.972656 57.519531 211.972656 57.519531 211.972656 57.515625 C 211.957031 57.503906 211.941406 57.492188 211.917969 57.480469 L 211.589844 57.28125 C 211.539062 57.320312 211.492188 57.359375 211.441406 57.402344 Z M 211.71875 57.171875 L 212.003906 57.34375 C 212.023438 57.355469 212.039062 57.367188 212.058594 57.378906 C 212.066406 57.386719 212.074219 57.390625 212.082031 57.398438 C 212.085938 57.402344 212.09375 57.40625 212.097656 57.414062 C 212.164062 57.351562 212.234375 57.285156 212.308594 57.21875 L 211.9375 56.992188 C 211.867188 57.054688 211.792969 57.109375 211.71875 57.171875 Z M 212.0625 56.882812 L 212.445312 57.113281 C 212.453125 57.117188 212.464844 57.121094 212.472656 57.125 C 212.472656 57.125 212.476562 57.125 212.476562 57.125 C 212.546875 57.148438 212.601562 57.132812 212.621094 57.097656 C 212.640625 57.0625 212.621094 57.003906 212.527344 56.953125 L 212.203125 56.757812 C 212.160156 56.796875 212.109375 56.839844 212.0625 56.882812 Z M 215.933594 57.957031 C 215.910156 56.953125 216.640625 56.351562 217.042969 56.09375 C 217.019531 56.070312 216.992188 56.046875 216.964844 56.023438 C 216.828125 55.914062 216.804688 55.835938 216.773438 55.734375 L 216.769531 55.71875 C 216.753906 55.675781 216.730469 55.589844 216.691406 55.507812 C 216.617188 55.894531 216.480469 56.214844 216.402344 56.3125 C 216.222656 56.527344 215.976562 56.625 215.78125 56.6875 L 214.921875 56.960938 C 214.332031 57.148438 213.953125 56.902344 213.585938 56.664062 C 213.480469 56.597656 213.378906 56.535156 213.277344 56.476562 C 213.113281 56.648438 212.953125 56.816406 212.773438 56.988281 C 212.796875 57.054688 212.789062 57.117188 212.761719 57.171875 C 212.730469 57.222656 212.6875 57.261719 212.625 57.28125 C 212.578125 57.296875 212.523438 57.296875 212.464844 57.285156 C 212.359375 57.382812 212.265625 57.472656 212.175781 57.554688 C 212.183594 57.609375 212.171875 57.652344 212.148438 57.695312 C 212.121094 57.746094 212.070312 57.785156 212.011719 57.804688 C 211.972656 57.816406 211.929688 57.820312 211.878906 57.816406 C 211.773438 57.90625 211.671875 57.996094 211.566406 58.082031 C 211.574219 58.132812 211.5625 58.175781 211.539062 58.214844 C 211.511719 58.265625 211.460938 58.308594 211.398438 58.328125 C 211.351562 58.34375 211.304688 58.34375 211.25 58.335938 C 211.148438 58.414062 211.046875 58.492188 210.949219 58.566406 C 210.96875 58.628906 210.957031 58.691406 210.929688 58.738281 C 210.898438 58.789062 210.847656 58.832031 210.785156 58.851562 C 210.71875 58.871094 210.648438 58.871094 210.566406 58.835938 C 210.445312 58.921875 210.328125 59 210.210938 59.074219 C 210.289062 59.214844 210.367188 59.398438 210.457031 59.65625 C 210.742188 59.582031 211.027344 59.503906 211.308594 59.425781 Z M 217.648438 57.410156 L 217.480469 56.882812 C 217.421875 56.628906 217.308594 56.402344 217.148438 56.210938 C 216.785156 56.4375 216.09375 56.988281 216.09375 57.902344 Z M 208.167969 60.121094 C 208.71875 60.074219 209.5 59.898438 210.300781 59.695312 C 210.054688 59.019531 209.90625 58.890625 209.664062 58.734375 C 209.457031 58.882812 209.128906 59.085938 208.925781 59.199219 C 208.457031 59.453125 208.074219 59.703125 208.167969 60.121094 Z M 207.9375 60.246094 C 207.957031 60.210938 207.976562 60.1875 208.007812 60.164062 C 207.878906 59.59375 208.457031 59.273438 208.847656 59.0625 C 209.058594 58.945312 209.425781 58.71875 209.621094 58.574219 C 209.625 58.574219 209.625 58.570312 209.628906 58.570312 C 209.785156 58.449219 209.976562 58.320312 210.171875 58.183594 L 210.261719 58.125 C 210.277344 58.113281 211.726562 57.019531 212.355469 56.402344 C 212.441406 56.316406 212.546875 56.25 212.660156 56.203125 L 212.976562 55.628906 C 213.121094 55.367188 213.328125 55.273438 213.535156 55.375 C 213.863281 55.554688 214.085938 55.992188 214.074219 56.421875 C 214.28125 56.535156 214.519531 56.59375 215.09375 56.414062 L 215.71875 56.214844 C 215.945312 56.128906 216.0625 55.941406 216.117188 55.792969 L 216.234375 55.351562 C 216.234375 55.347656 216.238281 55.34375 216.238281 55.339844 C 216.273438 55.25 216.351562 55.183594 216.441406 55.160156 C 216.527344 55.136719 216.617188 55.152344 216.683594 55.207031 C 216.796875 55.300781 216.875 55.5 216.925781 55.667969 L 216.929688 55.683594 C 216.960938 55.777344 216.972656 55.824219 217.078125 55.90625 C 217.359375 56.144531 217.550781 56.46875 217.640625 56.839844 L 217.945312 57.808594 C 218.0625 58.175781 217.839844 58.582031 217.453125 58.707031 L 211.65625 60.550781 C 210.453125 60.878906 209.601562 61.078125 208.804688 61.125 C 208.777344 61.125 208.144531 61.152344 208.03125 60.800781 L 207.917969 60.421875 C 207.898438 60.363281 207.90625 60.300781 207.9375 60.246094 "/></g></g></g></g></g><g style="fill:rgb(100%,100%,100%);fill-opacity:1;"><g transform="translate(162.943631, 57.293586)"><path style="stroke:none;" d="M 3.898438 -4.167969 C 3.898438 -3.632812 4.007812 -3.152344 4.222656 -2.671875 C 4.433594 -2.136719 4.703125 -1.710938 5.128906 -1.335938 C 5.503906 -0.910156 5.984375 -0.585938 6.570312 -0.375 C 7.105469 -0.105469 7.746094 0 8.496094 0 C 9.242188 0 9.882812 -0.105469 10.472656 -0.375 C 11.007812 -0.640625 11.488281 -0.960938 11.863281 -1.390625 C 12.234375 -1.816406 12.503906 -2.242188 12.714844 -2.777344 C 12.875 -3.257812 12.984375 -3.738281 12.984375 -4.222656 L 12.984375 -33.609375 C 12.984375 -34.089844 12.875 -34.570312 12.664062 -35.101562 C 12.449219 -35.585938 12.183594 -36.011719 11.808594 -36.4375 C 11.378906 -36.8125 10.898438 -37.132812 10.367188 -37.402344 C 9.832031 -37.667969 9.191406 -37.828125 8.441406 -37.828125 C 7.695312 -37.828125 7 -37.667969 6.464844 -37.402344 C 5.929688 -37.132812 5.449219 -36.8125 5.074219 -36.386719 C 4.648438 -35.957031 4.382812 -35.53125 4.167969 -35.050781 C 3.953125 -34.515625 3.898438 -34.035156 3.898438 -33.609375 Z M 3.898438 -4.167969 "/></g></g><g style="fill:rgb(100%,100%,100%);fill-opacity:1;"><g transform="translate(128.564351, 57.293586)"><path style="stroke:none;" d="M 26.609375 -21.691406 C 27.035156 -22.546875 27.410156 -23.402344 27.625 -24.257812 C 27.835938 -25.113281 27.996094 -26.019531 27.996094 -26.980469 C 27.996094 -28.371094 27.730469 -29.707031 27.195312 -30.988281 C 26.660156 -32.273438 25.914062 -33.445312 24.953125 -34.460938 C 23.988281 -35.476562 22.761719 -36.277344 21.320312 -36.921875 C 19.875 -37.5625 18.21875 -37.882812 16.402344 -37.882812 L 8.601562 -37.882812 C 7.855469 -37.882812 7.160156 -37.722656 6.625 -37.453125 C 6.039062 -37.1875 5.558594 -36.867188 5.183594 -36.4375 C 4.753906 -36.011719 4.488281 -35.585938 4.273438 -35.101562 C 4.0625 -34.570312 4.007812 -34.089844 4.007812 -33.609375 L 4.007812 -4.273438 C 4.007812 -3.792969 4.0625 -3.3125 4.273438 -2.777344 C 4.488281 -2.242188 4.753906 -1.816406 5.183594 -1.390625 C 5.558594 -0.960938 6.039062 -0.585938 6.625 -0.320312 C 7.160156 -0.0546875 7.855469 0.0546875 8.601562 0.0546875 L 17.578125 0.0546875 C 19.714844 0.0546875 21.640625 -0.265625 23.347656 -0.910156 C 25.058594 -1.550781 26.5 -2.40625 27.675781 -3.527344 C 28.851562 -4.648438 29.707031 -5.929688 30.347656 -7.425781 C 30.9375 -8.921875 31.257812 -10.527344 31.257812 -12.234375 C 31.257812 -13.945312 30.882812 -15.601562 30.242188 -17.203125 C 29.546875 -18.808594 28.53125 -20.144531 27.140625 -21.320312 C 27.035156 -21.371094 26.980469 -21.425781 26.875 -21.480469 C 26.769531 -21.53125 26.714844 -21.585938 26.609375 -21.691406 Z M 16.347656 -24.472656 L 13.679688 -24.472656 C 13.570312 -24.472656 13.410156 -24.523438 13.25 -24.683594 C 13.035156 -24.792969 12.984375 -25.003906 12.984375 -25.324219 L 12.984375 -28.585938 C 12.984375 -28.851562 13.035156 -29.066406 13.25 -29.226562 C 13.410156 -29.332031 13.570312 -29.441406 13.679688 -29.441406 L 16.347656 -29.441406 C 17.152344 -29.441406 17.792969 -29.226562 18.21875 -28.796875 C 18.648438 -28.371094 18.914062 -27.785156 18.914062 -26.980469 C 18.914062 -26.179688 18.648438 -25.539062 18.21875 -25.113281 C 17.738281 -24.683594 17.097656 -24.472656 16.347656 -24.472656 Z M 12.984375 -9.402344 L 12.984375 -15.335938 C 12.984375 -15.601562 13.035156 -15.816406 13.25 -15.976562 C 13.410156 -16.082031 13.570312 -16.1875 13.679688 -16.1875 L 17.578125 -16.1875 C 20.675781 -16.1875 22.226562 -14.90625 22.226562 -12.394531 C 22.226562 -9.832031 20.675781 -8.546875 17.578125 -8.546875 L 13.679688 -8.546875 C 13.570312 -8.546875 13.410156 -8.601562 13.25 -8.761719 C 13.035156 -8.871094 12.984375 -9.082031 12.984375 -9.402344 Z M 12.984375 -9.402344 "/></g></g><g style="fill:rgb(100%,100%,100%);fill-opacity:1;"><g transform="translate(179.124617, 56.511103)"><path style="stroke:none;" d="M 23.296875 -15.976562 C 25.324219 -17.097656 26.929688 -18.488281 28.050781 -20.089844 C 29.121094 -21.691406 29.707031 -23.777344 29.707031 -26.234375 C 29.707031 -27.675781 29.386719 -29.121094 28.851562 -30.507812 C 28.316406 -31.898438 27.515625 -33.179688 26.449219 -34.300781 C 25.378906 -35.371094 24.097656 -36.277344 22.546875 -36.921875 C 20.996094 -37.5625 19.234375 -37.933594 17.257812 -37.933594 L 8.546875 -37.933594 C 7.800781 -37.933594 7.105469 -37.773438 6.570312 -37.507812 C 6.039062 -37.242188 5.558594 -36.921875 5.183594 -36.492188 C 4.753906 -36.066406 4.488281 -35.636719 4.273438 -35.15625 C 4.0625 -34.621094 4.007812 -34.140625 4.007812 -33.660156 L 4.007812 -4.273438 C 4.007812 -3.792969 4.0625 -3.3125 4.273438 -2.832031 C 4.488281 -2.296875 4.753906 -1.871094 5.128906 -1.441406 C 5.503906 -1.015625 5.984375 -0.640625 6.519531 -0.375 C 7.054688 -0.105469 7.746094 0 8.496094 0 C 9.242188 0 9.882812 -0.105469 10.472656 -0.375 C 11.007812 -0.640625 11.488281 -0.960938 11.863281 -1.390625 C 12.234375 -1.816406 12.503906 -2.242188 12.714844 -2.777344 C 12.875 -3.257812 12.984375 -3.738281 12.984375 -4.222656 L 12.984375 -14 C 12.984375 -14.210938 13.035156 -14.371094 13.144531 -14.425781 C 13.25 -14.480469 13.304688 -14.53125 13.359375 -14.53125 C 13.570312 -14.53125 13.839844 -14.371094 14.050781 -14.105469 L 21.53125 -2.082031 C 21.90625 -1.441406 22.441406 -0.960938 23.082031 -0.585938 C 23.722656 -0.160156 24.523438 0 25.433594 0 C 26.179688 0 26.820312 -0.105469 27.355469 -0.375 C 27.890625 -0.640625 28.371094 -0.960938 28.746094 -1.390625 C 29.121094 -1.761719 29.386719 -2.191406 29.601562 -2.726562 C 29.8125 -3.257812 29.921875 -3.738281 29.921875 -4.222656 C 29.921875 -4.96875 29.707031 -5.71875 29.28125 -6.359375 C 29.066406 -6.625 28.636719 -7.265625 27.996094 -8.335938 C 27.355469 -9.351562 26.660156 -10.472656 25.914062 -11.699219 C 25.484375 -12.289062 25.113281 -12.875 24.792969 -13.410156 C 24.472656 -13.945312 24.148438 -14.480469 23.882812 -14.90625 C 23.5625 -15.335938 23.402344 -15.707031 23.296875 -15.976562 Z M 12.929688 -23.882812 L 12.929688 -28.585938 C 12.929688 -28.851562 12.984375 -29.066406 13.195312 -29.226562 C 13.359375 -29.332031 13.519531 -29.441406 13.625 -29.441406 L 17.152344 -29.441406 C 18.21875 -29.441406 19.074219 -29.121094 19.664062 -28.585938 C 20.25 -28.050781 20.570312 -27.25 20.570312 -26.234375 C 20.570312 -25.164062 20.25 -24.363281 19.664062 -23.828125 C 19.074219 -23.296875 18.21875 -23.027344 17.152344 -23.027344 L 13.625 -23.027344 C 13.519531 -23.027344 13.359375 -23.082031 13.195312 -23.242188 C 12.984375 -23.347656 12.929688 -23.5625 12.929688 -23.882812 Z M 12.929688 -23.882812 "/></g></g><g style="fill:rgb(100%,100%,100%);fill-opacity:1;"><g transform="translate(246.790227, 57.293586)"><path style="stroke:none;" d="M 3.898438 -4.167969 C 3.898438 -3.632812 4.007812 -3.152344 4.222656 -2.671875 C 4.433594 -2.136719 4.703125 -1.710938 5.128906 -1.335938 C 5.503906 -0.910156 5.984375 -0.585938 6.570312 -0.375 C 7.105469 -0.105469 7.746094 0 8.496094 0 C 9.242188 0 9.882812 -0.105469 10.472656 -0.375 C 11.007812 -0.640625 11.488281 -0.960938 11.863281 -1.390625 C 12.234375 -1.816406 12.503906 -2.242188 12.714844 -2.777344 C 12.875 -3.257812 12.984375 -3.738281 12.984375 -4.222656 L 12.984375 -33.609375 C 12.984375 -34.089844 12.875 -34.570312 12.664062 -35.101562 C 12.449219 -35.585938 12.183594 -36.011719 11.808594 -36.4375 C 11.378906 -36.8125 10.898438 -37.132812 10.367188 -37.402344 C 9.832031 -37.667969 9.191406 -37.828125 8.441406 -37.828125 C 7.695312 -37.828125 7 -37.667969 6.464844 -37.402344 C 5.929688 -37.132812 5.449219 -36.8125 5.074219 -36.386719 C 4.648438 -35.957031 4.382812 -35.53125 4.167969 -35.050781 C 3.953125 -34.515625 3.898438 -34.035156 3.898438 -33.609375 Z M 3.898438 -4.167969 "/></g></g><g style="fill:rgb(100%,100%,100%);fill-opacity:1;"><g transform="translate(264.87684, 57.293586)"><path style="stroke:none;" d="M 13.035156 -26.769531 L 13.035156 -33.660156 C 13.035156 -34.140625 12.929688 -34.621094 12.714844 -35.15625 C 12.503906 -35.636719 12.234375 -36.066406 11.863281 -36.492188 C 11.433594 -36.867188 10.953125 -37.1875 10.417969 -37.453125 C 9.882812 -37.722656 9.242188 -37.882812 8.496094 -37.882812 C 7.746094 -37.882812 7.054688 -37.722656 6.519531 -37.453125 C 5.984375 -37.1875 5.503906 -36.867188 5.128906 -36.4375 C 4.703125 -36.011719 4.433594 -35.585938 4.222656 -35.101562 C 4.007812 -34.570312 3.953125 -34.089844 3.953125 -33.609375 L 3.953125 -4.222656 C 3.953125 -3.738281 4.007812 -3.257812 4.222656 -2.777344 C 4.433594 -2.242188 4.703125 -1.816406 5.074219 -1.390625 C 5.449219 -0.960938 5.929688 -0.585938 6.464844 -0.320312 C 7 -0.0546875 7.695312 0.0546875 8.441406 0.0546875 C 9.191406 0.0546875 9.832031 -0.0546875 10.417969 -0.320312 C 10.953125 -0.585938 11.433594 -0.910156 11.808594 -1.335938 C 12.183594 -1.761719 12.449219 -2.191406 12.664062 -2.726562 C 12.824219 -3.207031 12.929688 -3.6875 12.929688 -4.167969 L 12.929688 -13.25 L 26.128906 -1.121094 C 26.5 -0.746094 26.929688 -0.425781 27.464844 -0.214844 C 27.996094 0 28.585938 0.105469 29.28125 0.105469 C 30.027344 0.105469 30.667969 0 31.257812 -0.265625 C 31.789062 -0.535156 32.273438 -0.855469 32.644531 -1.28125 C 33.019531 -1.710938 33.285156 -2.136719 33.5 -2.671875 C 33.714844 -3.207031 33.820312 -3.6875 33.820312 -4.167969 C 33.820312 -5.289062 33.339844 -6.304688 32.433594 -7.160156 L 18.488281 -19.929688 L 29.921875 -30.507812 C 30.402344 -30.9375 30.777344 -31.417969 30.988281 -31.949219 C 31.203125 -32.484375 31.308594 -33.074219 31.308594 -33.609375 C 31.308594 -34.035156 31.203125 -34.515625 31.042969 -35.050781 C 30.828125 -35.53125 30.5625 -36.011719 30.242188 -36.4375 C 29.867188 -36.867188 29.386719 -37.1875 28.851562 -37.453125 C 28.316406 -37.722656 27.675781 -37.882812 26.929688 -37.882812 C 26.234375 -37.882812 25.644531 -37.773438 25.113281 -37.5625 C 24.578125 -37.347656 24.148438 -37.027344 23.777344 -36.652344 Z M 13.035156 -26.769531 "/></g></g><g style="fill:rgb(100%,100%,100%);fill-opacity:1;"><g transform="translate(294.941321, 56.511103)"><path style="stroke:none;" d="M 8.441406 -37.773438 C 7.695312 -37.773438 7 -37.613281 6.464844 -37.347656 C 5.929688 -37.082031 5.449219 -36.761719 5.074219 -36.332031 C 4.648438 -35.90625 4.382812 -35.476562 4.167969 -34.996094 C 3.953125 -34.460938 3.898438 -33.980469 3.898438 -33.554688 C 3.898438 -33.019531 4.007812 -32.484375 4.222656 -32.003906 C 4.433594 -31.523438 4.703125 -31.097656 5.128906 -30.722656 C 5.503906 -30.292969 5.984375 -29.972656 6.570312 -29.761719 C 7.105469 -29.546875 7.746094 -29.441406 8.496094 -29.441406 L 14.691406 -29.441406 C 14.800781 -29.441406 14.960938 -29.332031 15.121094 -29.226562 C 15.28125 -29.066406 15.386719 -28.851562 15.386719 -28.585938 L 15.386719 -4.222656 C 15.386719 -3.738281 15.441406 -3.257812 15.65625 -2.777344 C 15.867188 -2.242188 16.136719 -1.816406 16.511719 -1.390625 C 16.882812 -0.960938 17.363281 -0.585938 17.898438 -0.320312 C 18.433594 -0.0546875 19.128906 0.0546875 19.875 0.0546875 C 20.625 0.0546875 21.265625 -0.0546875 21.851562 -0.320312 C 22.386719 -0.585938 22.867188 -0.910156 23.242188 -1.335938 C 23.617188 -1.761719 23.882812 -2.191406 24.097656 -2.726562 C 24.257812 -3.207031 24.363281 -3.6875 24.363281 -4.167969 L 24.363281 -28.53125 C 24.363281 -28.796875 24.417969 -29.011719 24.632812 -29.171875 C 24.792969 -29.28125 24.953125 -29.386719 25.058594 -29.386719 L 31.257812 -29.386719 C 32.003906 -29.386719 32.644531 -29.492188 33.234375 -29.761719 C 33.769531 -30.027344 34.25 -30.347656 34.621094 -30.777344 C 34.996094 -31.148438 35.265625 -31.578125 35.476562 -32.113281 C 35.636719 -32.644531 35.746094 -33.125 35.746094 -33.609375 C 35.746094 -34.035156 35.636719 -34.515625 35.425781 -35.050781 C 35.210938 -35.53125 34.941406 -35.957031 34.570312 -36.386719 C 34.140625 -36.761719 33.660156 -37.082031 33.125 -37.347656 C 32.59375 -37.613281 31.949219 -37.773438 31.203125 -37.773438 Z M 8.441406 -37.773438 "/></g></g><g style="fill:rgb(100%,100%,100%);fill-opacity:1;"><g transform="translate(332.449669, 57.293586)"><path style="stroke:none;" d="M 8.496094 0 L 23.617188 0 C 24.363281 0 25.003906 -0.105469 25.59375 -0.375 C 26.128906 -0.640625 26.609375 -0.960938 26.980469 -1.390625 C 27.355469 -1.816406 27.625 -2.242188 27.835938 -2.777344 C 27.996094 -3.257812 28.105469 -3.738281 28.105469 -4.222656 C 28.105469 -4.703125 27.996094 -5.183594 27.785156 -5.71875 C 27.570312 -6.199219 27.300781 -6.625 26.929688 -7.054688 C 26.5 -7.425781 26.019531 -7.746094 25.484375 -8.015625 C 24.953125 -8.28125 24.3125 -8.441406 23.5625 -8.441406 L 13.625 -8.441406 C 13.519531 -8.441406 13.359375 -8.496094 13.195312 -8.601562 C 12.984375 -8.710938 12.929688 -8.921875 12.929688 -9.242188 L 12.929688 -14.800781 C 12.929688 -15.066406 12.984375 -15.28125 13.195312 -15.441406 C 13.359375 -15.546875 13.519531 -15.65625 13.625 -15.65625 L 20.785156 -15.65625 C 21.53125 -15.65625 22.171875 -15.761719 22.707031 -16.027344 C 23.242188 -16.296875 23.722656 -16.617188 24.097656 -17.042969 C 24.472656 -17.472656 24.738281 -17.898438 24.953125 -18.433594 C 25.164062 -18.914062 25.273438 -19.394531 25.273438 -19.875 C 25.273438 -20.355469 25.164062 -20.835938 24.953125 -21.371094 C 24.738281 -21.851562 24.472656 -22.28125 24.097656 -22.707031 C 23.667969 -23.082031 23.1875 -23.402344 22.65625 -23.667969 C 22.121094 -23.9375 21.480469 -24.097656 20.730469 -24.097656 L 13.570312 -24.097656 C 13.464844 -24.097656 13.304688 -24.148438 13.144531 -24.257812 C 12.929688 -24.363281 12.875 -24.578125 12.875 -24.898438 L 12.875 -28.585938 C 12.875 -28.851562 12.929688 -29.066406 13.144531 -29.226562 C 13.304688 -29.332031 13.464844 -29.441406 13.570312 -29.441406 L 23.507812 -29.441406 C 24.257812 -29.441406 24.898438 -29.546875 25.484375 -29.8125 C 26.019531 -30.082031 26.5 -30.402344 26.875 -30.828125 C 27.25 -31.203125 27.515625 -31.628906 27.730469 -32.164062 C 27.890625 -32.644531 27.996094 -33.125 27.996094 -33.609375 C 27.996094 -34.089844 27.890625 -34.570312 27.675781 -35.101562 C 27.464844 -35.585938 27.195312 -36.011719 26.820312 -36.4375 C 26.394531 -36.8125 25.914062 -37.132812 25.378906 -37.402344 C 24.84375 -37.667969 24.203125 -37.828125 23.457031 -37.828125 L 8.335938 -37.828125 C 7.585938 -37.828125 6.890625 -37.667969 6.359375 -37.402344 C 5.824219 -37.132812 5.34375 -36.8125 4.96875 -36.386719 C 4.542969 -35.957031 4.273438 -35.53125 4.0625 -35.050781 C 3.847656 -34.515625 3.792969 -34.035156 3.792969 -33.609375 L 3.792969 -4.167969 C 3.792969 -3.632812 3.898438 -3.097656 4.113281 -2.617188 C 4.328125 -2.082031 4.648438 -1.65625 5.074219 -1.28125 C 5.503906 -0.855469 5.984375 -0.535156 6.570312 -0.320312 C 7.160156 -0.105469 7.800781 0 8.496094 0 Z M 8.496094 0 "/></g></g><g style="fill:rgb(100%,100%,100%);fill-opacity:1;"><g transform="translate(9.635714, 56.511103)"><path style="stroke:none;" d="M 3.898438 -4.167969 C 3.898438 -3.632812 4.007812 -3.152344 4.222656 -2.671875 C 4.433594 -2.136719 4.703125 -1.710938 5.128906 -1.335938 C 5.503906 -0.910156 5.984375 -0.585938 6.570312 -0.375 C 7.105469 -0.105469 7.746094 0 8.496094 0 C 9.242188 0 9.882812 -0.105469 10.472656 -0.375 C 11.007812 -0.640625 11.488281 -0.960938 11.863281 -1.390625 C 12.234375 -1.816406 12.503906 -2.242188 12.714844 -2.777344 C 12.875 -3.257812 12.984375 -3.738281 12.984375 -4.222656 L 12.984375 -33.609375 C 12.984375 -34.089844 12.875 -34.570312 12.664062 -35.101562 C 12.449219 -35.585938 12.183594 -36.011719 11.808594 -36.4375 C 11.378906 -36.8125 10.898438 -37.132812 10.367188 -37.402344 C 9.832031 -37.667969 9.191406 -37.828125 8.441406 -37.828125 C 7.695312 -37.828125 7 -37.667969 6.464844 -37.402344 C 5.929688 -37.132812 5.449219 -36.8125 5.074219 -36.386719 C 4.648438 -35.957031 4.382812 -35.53125 4.167969 -35.050781 C 3.953125 -34.515625 3.898438 -34.035156 3.898438 -33.609375 Z M 3.898438 -4.167969 "/></g></g><g style="fill:rgb(100%,100%,100%);fill-opacity:1;"><g transform="translate(97.011885, 56.511103)"><path style="stroke:none;" d="M 8.496094 0 L 23.617188 0 C 24.363281 0 25.003906 -0.105469 25.59375 -0.375 C 26.128906 -0.640625 26.609375 -0.960938 26.980469 -1.390625 C 27.355469 -1.816406 27.625 -2.242188 27.835938 -2.777344 C 27.996094 -3.257812 28.105469 -3.738281 28.105469 -4.222656 C 28.105469 -4.703125 27.996094 -5.183594 27.785156 -5.71875 C 27.570312 -6.199219 27.300781 -6.625 26.929688 -7.054688 C 26.5 -7.425781 26.019531 -7.746094 25.484375 -8.015625 C 24.953125 -8.28125 24.3125 -8.441406 23.5625 -8.441406 L 13.625 -8.441406 C 13.519531 -8.441406 13.359375 -8.496094 13.195312 -8.601562 C 12.984375 -8.710938 12.929688 -8.921875 12.929688 -9.242188 L 12.929688 -14.800781 C 12.929688 -15.066406 12.984375 -15.28125 13.195312 -15.441406 C 13.359375 -15.546875 13.519531 -15.65625 13.625 -15.65625 L 20.785156 -15.65625 C 21.53125 -15.65625 22.171875 -15.761719 22.707031 -16.027344 C 23.242188 -16.296875 23.722656 -16.617188 24.097656 -17.042969 C 24.472656 -17.472656 24.738281 -17.898438 24.953125 -18.433594 C 25.164062 -18.914062 25.273438 -19.394531 25.273438 -19.875 C 25.273438 -20.355469 25.164062 -20.835938 24.953125 -21.371094 C 24.738281 -21.851562 24.472656 -22.28125 24.097656 -22.707031 C 23.667969 -23.082031 23.1875 -23.402344 22.65625 -23.667969 C 22.121094 -23.9375 21.480469 -24.097656 20.730469 -24.097656 L 13.570312 -24.097656 C 13.464844 -24.097656 13.304688 -24.148438 13.144531 -24.257812 C 12.929688 -24.363281 12.875 -24.578125 12.875 -24.898438 L 12.875 -28.585938 C 12.875 -28.851562 12.929688 -29.066406 13.144531 -29.226562 C 13.304688 -29.332031 13.464844 -29.441406 13.570312 -29.441406 L 23.507812 -29.441406 C 24.257812 -29.441406 24.898438 -29.546875 25.484375 -29.8125 C 26.019531 -30.082031 26.5 -30.402344 26.875 -30.828125 C 27.25 -31.203125 27.515625 -31.628906 27.730469 -32.164062 C 27.890625 -32.644531 27.996094 -33.125 27.996094 -33.609375 C 27.996094 -34.089844 27.890625 -34.570312 27.675781 -35.101562 C 27.464844 -35.585938 27.195312 -36.011719 26.820312 -36.4375 C 26.394531 -36.8125 25.914062 -37.132812 25.378906 -37.402344 C 24.84375 -37.667969 24.203125 -37.828125 23.457031 -37.828125 L 8.335938 -37.828125 C 7.585938 -37.828125 6.890625 -37.667969 6.359375 -37.402344 C 5.824219 -37.132812 5.34375 -36.8125 4.96875 -36.386719 C 4.542969 -35.957031 4.273438 -35.53125 4.0625 -35.050781 C 3.847656 -34.515625 3.792969 -34.035156 3.792969 -33.609375 L 3.792969 -4.167969 C 3.792969 -3.632812 3.898438 -3.097656 4.113281 -2.617188 C 4.328125 -2.082031 4.648438 -1.65625 5.074219 -1.28125 C 5.503906 -0.855469 5.984375 -0.535156 6.570312 -0.320312 C 7.160156 -0.105469 7.800781 0 8.496094 0 Z M 8.496094 0 "/></g></g></g></svg>