<?xml version="1.0" encoding="UTF-8"?><svg xmlns="http://www.w3.org/2000/svg" xmlns:xlink="http://www.w3.org/1999/xlink" contentScriptType="text/ecmascript" width="375pt" zoomAndPan="magnify" contentStyleType="text/css" viewBox="0 0 375 74.999997" height="74.999997pt" preserveAspectRatio="xMidYMid meet" version="1.2"><defs><g/></defs><g xml:id="surface1" id="surface1"><g style="fill:rgb(0%,0%,0%);fill-opacity:1;"><g transform="translate(23.075169, 58.152724)"><path style="stroke:none;" d="M 21.265625 -29.386719 L 4.703125 -6.625 C 4.167969 -5.824219 3.953125 -5.023438 3.953125 -4.273438 C 3.953125 -3.792969 4.007812 -3.3125 4.222656 -2.832031 C 4.433594 -2.296875 4.703125 -1.871094 5.074219 -1.441406 C 5.449219 -1.015625 5.929688 -0.640625 6.464844 -0.375 C 7 -0.105469 7.695312 0 8.441406 0 L 29.867188 0 C 30.617188 0 31.257812 -0.105469 31.789062 -0.375 C 32.324219 -0.640625 32.804688 -0.960938 33.179688 -1.390625 C 33.554688 -1.816406 33.820312 -2.242188 34.035156 -2.777344 C 34.25 -3.257812 34.355469 -3.738281 34.355469 -4.222656 C 34.355469 -4.703125 34.25 -5.183594 34.035156 -5.71875 C 33.820312 -6.199219 33.554688 -6.625 33.179688 -7.054688 C 32.753906 -7.425781 32.273438 -7.746094 31.738281 -8.015625 C 31.203125 -8.28125 30.5625 -8.441406 29.8125 -8.441406 L 16.992188 -8.441406 L 33.5 -31.148438 C 34.035156 -31.898438 34.300781 -32.699219 34.300781 -33.554688 C 34.300781 -33.980469 34.195312 -34.410156 34.035156 -34.941406 C 33.875 -35.425781 33.609375 -35.90625 33.285156 -36.332031 C 32.914062 -36.761719 32.433594 -37.082031 31.898438 -37.402344 C 31.363281 -37.722656 30.667969 -37.882812 29.921875 -37.882812 L 8.496094 -37.882812 C 7.746094 -37.882812 7.054688 -37.722656 6.519531 -37.453125 C 5.984375 -37.1875 5.503906 -36.867188 5.128906 -36.4375 C 4.703125 -36.011719 4.433594 -35.585938 4.222656 -35.101562 C 4.007812 -34.570312 3.953125 -34.089844 3.953125 -33.609375 C 3.953125 -33.125 4.007812 -32.644531 4.222656 -32.164062 C 4.433594 -31.628906 4.703125 -31.203125 5.074219 -30.777344 C 5.449219 -30.347656 5.929688 -30.027344 6.464844 -29.761719 C 7 -29.492188 7.695312 -29.386719 8.441406 -29.386719 Z M 21.265625 -29.386719 "/></g></g><g style="fill:rgb(36.079407%,88.238525%,90.19928%);fill-opacity:1;"><g transform="translate(60.742854, 58.152724)"><path style="stroke:none;" d="M 12.875 -33.609375 C 12.875 -34.035156 12.769531 -34.460938 12.609375 -34.996094 C 12.449219 -35.476562 12.183594 -35.957031 11.863281 -36.386719 C 11.488281 -36.8125 11.007812 -37.132812 10.472656 -37.453125 C 9.9375 -37.722656 9.242188 -37.882812 8.496094 -37.882812 C 7.746094 -37.882812 7.054688 -37.722656 6.519531 -37.453125 C 5.984375 -37.1875 5.503906 -36.867188 5.128906 -36.4375 C 4.703125 -36.011719 4.433594 -35.585938 4.222656 -35.101562 C 4.007812 -34.570312 3.953125 -34.089844 3.953125 -33.609375 L 3.953125 -4.222656 C 3.953125 -3.738281 4.007812 -3.257812 4.222656 -2.777344 C 4.433594 -2.242188 4.703125 -1.816406 5.074219 -1.390625 C 5.449219 -0.960938 5.929688 -0.585938 6.464844 -0.320312 C 7 -0.0546875 7.695312 0.0546875 8.441406 0.0546875 L 24.148438 0.0546875 C 24.898438 0.0546875 25.539062 -0.0546875 26.128906 -0.320312 C 26.660156 -0.585938 27.140625 -0.910156 27.515625 -1.335938 C 27.890625 -1.761719 28.15625 -2.191406 28.371094 -2.726562 C 28.53125 -3.207031 28.636719 -3.6875 28.636719 -4.167969 C 28.636719 -4.648438 28.53125 -5.128906 28.316406 -5.664062 C 28.105469 -6.144531 27.835938 -6.570312 27.464844 -7 C 27.035156 -7.375 26.554688 -7.695312 26.019531 -7.960938 C 25.484375 -8.226562 24.84375 -8.386719 24.097656 -8.386719 L 13.570312 -8.386719 C 13.464844 -8.386719 13.304688 -8.441406 13.144531 -8.546875 C 12.929688 -8.65625 12.875 -8.871094 12.875 -9.191406 Z M 12.875 -33.609375 "/></g></g><path style="fill:none;stroke-width:1;stroke-linecap:round;stroke-linejoin:miter;stroke:rgb(36.859131%,9.01947%,92.158508%);stroke-opacity:1;stroke-miterlimit:4;" d="M 0.500219 -0.000202238 L 18.429902 -0.000202238 " transform="matrix(7.488237,0,0,7.499999,17.058928,12.528861)"/><path style="fill:none;stroke-width:1;stroke-linecap:round;stroke-linejoin:miter;stroke:rgb(100%,87.059021%,34.899902%);stroke-opacity:1;stroke-miterlimit:4;" d="M 0.499782 -0.000202238 L 9.515046 -0.000202238 " transform="matrix(7.489467,0,0,7.499999,166.127996,12.528861)"/><path style="fill:none;stroke-width:1;stroke-linecap:round;stroke-linejoin:miter;stroke:rgb(100%,56.858826%,30.198669%);stroke-opacity:1;stroke-miterlimit:4;" d="M 0.500128 -0.0000382254 L 13.530827 -0.0000382254 " transform="matrix(7.484129,0,0,7.499999,254.471824,11.74638)"/><path style=" stroke:none;fill-rule:nonzero;fill:rgb(36.859131%,9.01947%,92.158508%);fill-opacity:1;" d="M 17.058594 5.730469 C 16.664062 5.730469 16.273438 5.769531 15.886719 5.847656 C 15.496094 5.921875 15.121094 6.035156 14.757812 6.1875 C 14.390625 6.339844 14.046875 6.523438 13.714844 6.742188 C 13.386719 6.964844 13.085938 7.214844 12.804688 7.492188 C 12.527344 7.773438 12.277344 8.074219 12.054688 8.402344 C 11.835938 8.730469 11.652344 9.078125 11.5 9.445312 C 11.347656 9.808594 11.234375 10.183594 11.160156 10.574219 C 11.082031 10.960938 11.042969 11.351562 11.042969 11.746094 C 11.042969 12.140625 11.082031 12.53125 11.160156 12.921875 C 11.234375 13.308594 11.347656 13.683594 11.5 14.046875 C 11.652344 14.414062 11.835938 14.761719 12.054688 15.089844 C 12.277344 15.417969 12.527344 15.722656 12.804688 16 C 13.085938 16.28125 13.386719 16.527344 13.714844 16.75 C 14.046875 16.96875 14.390625 17.152344 14.757812 17.304688 C 15.121094 17.457031 15.496094 17.570312 15.886719 17.648438 C 16.273438 17.722656 16.664062 17.761719 17.058594 17.761719 C 17.453125 17.761719 17.84375 17.722656 18.234375 17.648438 C 18.621094 17.570312 18.996094 17.457031 19.359375 17.304688 C 19.726562 17.152344 20.074219 16.96875 20.402344 16.75 C 20.730469 16.527344 21.035156 16.28125 21.3125 16 C 21.59375 15.722656 21.839844 15.417969 22.0625 15.089844 C 22.28125 14.761719 22.464844 14.414062 22.617188 14.046875 C 22.769531 13.683594 22.882812 13.308594 22.960938 12.921875 C 23.035156 12.53125 23.074219 12.140625 23.074219 11.746094 C 23.074219 11.351562 23.035156 10.960938 22.960938 10.574219 C 22.882812 10.183594 22.769531 9.808594 22.617188 9.445312 C 22.464844 9.078125 22.28125 8.730469 22.0625 8.402344 C 21.839844 8.074219 21.59375 7.773438 21.3125 7.492188 C 21.035156 7.214844 20.730469 6.964844 20.402344 6.742188 C 20.074219 6.523438 19.726562 6.339844 19.359375 6.1875 C 18.996094 6.035156 18.621094 5.921875 18.234375 5.847656 C 17.84375 5.769531 17.453125 5.730469 17.058594 5.730469 Z M 17.058594 5.730469 "/><path style=" stroke:none;fill-rule:nonzero;fill:rgb(100%,87.059021%,34.899902%);fill-opacity:1;" d="M 169.929688 6.511719 C 169.535156 6.511719 169.144531 6.550781 168.757812 6.628906 C 168.367188 6.707031 167.992188 6.820312 167.628906 6.96875 C 167.261719 7.121094 166.914062 7.308594 166.585938 7.527344 C 166.257812 7.746094 165.953125 7.996094 165.675781 8.273438 C 165.394531 8.554688 165.148438 8.859375 164.925781 9.1875 C 164.707031 9.515625 164.523438 9.863281 164.371094 10.226562 C 164.21875 10.589844 164.105469 10.96875 164.027344 11.355469 C 163.953125 11.742188 163.914062 12.132812 163.914062 12.527344 C 163.914062 12.925781 163.953125 13.316406 164.027344 13.703125 C 164.105469 14.089844 164.21875 14.464844 164.371094 14.832031 C 164.523438 15.195312 164.707031 15.542969 164.925781 15.871094 C 165.148438 16.199219 165.394531 16.503906 165.675781 16.78125 C 165.953125 17.0625 166.257812 17.3125 166.585938 17.53125 C 166.914062 17.75 167.261719 17.9375 167.628906 18.085938 C 167.992188 18.238281 168.367188 18.351562 168.757812 18.429688 C 169.144531 18.507812 169.535156 18.546875 169.929688 18.546875 C 170.324219 18.546875 170.714844 18.507812 171.101562 18.429688 C 171.492188 18.351562 171.867188 18.238281 172.230469 18.085938 C 172.597656 17.9375 172.945312 17.75 173.273438 17.53125 C 173.601562 17.3125 173.90625 17.0625 174.183594 16.78125 C 174.464844 16.503906 174.710938 16.199219 174.933594 15.871094 C 175.152344 15.542969 175.335938 15.195312 175.488281 14.832031 C 175.640625 14.464844 175.753906 14.089844 175.832031 13.703125 C 175.90625 13.316406 175.945312 12.925781 175.945312 12.527344 C 175.945312 12.132812 175.90625 11.742188 175.832031 11.355469 C 175.753906 10.96875 175.640625 10.589844 175.488281 10.226562 C 175.335938 9.863281 175.152344 9.515625 174.933594 9.1875 C 174.710938 8.859375 174.464844 8.554688 174.183594 8.273438 C 173.90625 7.996094 173.601562 7.746094 173.273438 7.527344 C 172.945312 7.308594 172.597656 7.121094 172.230469 6.96875 C 171.867188 6.820312 171.492188 6.707031 171.101562 6.628906 C 170.714844 6.550781 170.324219 6.511719 169.929688 6.511719 Z M 169.929688 6.511719 "/><path style=" stroke:none;fill-rule:nonzero;fill:rgb(100%,56.858826%,30.198669%);fill-opacity:1;" d="M 254.472656 5.730469 C 254.078125 5.730469 253.683594 5.769531 253.296875 5.847656 C 252.910156 5.921875 252.535156 6.035156 252.167969 6.1875 C 251.804688 6.339844 251.457031 6.523438 251.128906 6.742188 C 250.800781 6.964844 250.496094 7.214844 250.21875 7.492188 C 249.9375 7.773438 249.6875 8.074219 249.46875 8.402344 C 249.25 8.730469 249.066406 9.078125 248.914062 9.445312 C 248.761719 9.808594 248.648438 10.183594 248.570312 10.574219 C 248.492188 10.960938 248.457031 11.351562 248.457031 11.746094 C 248.457031 12.140625 248.492188 12.53125 248.570312 12.921875 C 248.648438 13.308594 248.761719 13.683594 248.914062 14.046875 C 249.066406 14.414062 249.25 14.761719 249.46875 15.089844 C 249.6875 15.417969 249.9375 15.722656 250.21875 16 C 250.496094 16.28125 250.800781 16.527344 251.128906 16.75 C 251.457031 16.96875 251.804688 17.152344 252.167969 17.304688 C 252.535156 17.457031 252.910156 17.570312 253.296875 17.648438 C 253.683594 17.722656 254.078125 17.761719 254.472656 17.761719 C 254.867188 17.761719 255.257812 17.722656 255.644531 17.648438 C 256.03125 17.570312 256.410156 17.457031 256.773438 17.304688 C 257.140625 17.152344 257.484375 16.96875 257.8125 16.75 C 258.144531 16.527344 258.445312 16.28125 258.726562 16 C 259.003906 15.722656 259.253906 15.417969 259.472656 15.089844 C 259.695312 14.761719 259.878906 14.414062 260.03125 14.046875 C 260.179688 13.683594 260.296875 13.308594 260.371094 12.921875 C 260.449219 12.53125 260.488281 12.140625 260.488281 11.746094 C 260.488281 11.351562 260.449219 10.960938 260.371094 10.574219 C 260.296875 10.183594 260.179688 9.808594 260.03125 9.445312 C 259.878906 9.078125 259.695312 8.730469 259.472656 8.402344 C 259.253906 8.074219 259.003906 7.773438 258.726562 7.492188 C 258.445312 7.214844 258.144531 6.964844 257.8125 6.742188 C 257.484375 6.523438 257.140625 6.339844 256.773438 6.1875 C 256.410156 6.035156 256.03125 5.921875 255.644531 5.847656 C 255.257812 5.769531 254.867188 5.730469 254.472656 5.730469 Z M 254.472656 5.730469 "/><path style=" stroke:none;fill-rule:nonzero;fill:rgb(0%,0%,0%);fill-opacity:1;" d="M 77.117188 31.839844 C 76.726562 31.839844 76.351562 31.914062 75.988281 32.0625 C 75.628906 32.214844 75.308594 32.425781 75.035156 32.703125 C 74.757812 32.980469 74.542969 33.296875 74.394531 33.660156 C 74.246094 34.019531 74.167969 34.398438 74.167969 34.789062 C 74.167969 35.179688 74.246094 35.554688 74.394531 35.917969 C 74.542969 36.277344 74.757812 36.597656 75.035156 36.871094 C 75.308594 37.148438 75.628906 37.363281 75.988281 37.511719 C 76.351562 37.660156 76.726562 37.738281 77.117188 37.738281 C 77.507812 37.738281 77.886719 37.660156 78.246094 37.511719 C 78.609375 37.363281 78.925781 37.148438 79.203125 36.871094 C 79.480469 36.597656 79.691406 36.277344 79.84375 35.917969 C 79.992188 35.554688 80.066406 35.179688 80.066406 34.789062 C 80.066406 34.398438 79.992188 34.019531 79.84375 33.660156 C 79.691406 33.296875 79.480469 32.980469 79.203125 32.703125 C 78.925781 32.425781 78.609375 32.214844 78.246094 32.0625 C 77.886719 31.914062 77.507812 31.839844 77.117188 31.839844 Z M 77.117188 31.839844 "/><path style=" stroke:none;fill-rule:nonzero;fill:rgb(54.899597%,32.159424%,100%);fill-opacity:1;" d="M 85.46875 47 C 85.667969 47.210938 85.820312 47.464844 85.929688 47.761719 C 86.351562 48.929688 85.753906 50.210938 84.585938 50.632812 C 81.496094 51.769531 78.058594 50.941406 75.820312 48.535156 C 73.585938 46.128906 73.011719 42.636719 74.359375 39.628906 C 74.863281 38.496094 76.199219 37.988281 77.320312 38.5 C 78.453125 39.003906 78.960938 40.335938 78.445312 41.460938 C 77.847656 42.8125 78.105469 44.390625 79.113281 45.476562 C 80.121094 46.558594 81.667969 46.921875 83.0625 46.421875 C 83.921875 46.101562 84.875 46.359375 85.46875 47 Z M 85.46875 47 "/><path style=" stroke:none;fill-rule:nonzero;fill:rgb(100%,87.059021%,34.899902%);fill-opacity:1;" d="M 82.273438 51.339844 C 82.121094 51.171875 82.003906 50.96875 81.921875 50.734375 C 81.613281 49.8125 82.105469 48.816406 83.027344 48.507812 C 85.46875 47.667969 88.152344 48.378906 89.867188 50.304688 C 91.578125 52.230469 91.96875 54.976562 90.859375 57.3125 C 90.445312 58.191406 89.390625 58.570312 88.519531 58.148438 C 87.636719 57.734375 87.261719 56.679688 87.683594 55.808594 C 88.179688 54.757812 88.003906 53.511719 87.230469 52.644531 C 86.460938 51.777344 85.25 51.464844 84.152344 51.835938 C 83.46875 52.070312 82.726562 51.851562 82.273438 51.339844 Z M 82.273438 51.339844 "/><path style=" stroke:none;fill-rule:nonzero;fill:rgb(100%,56.858826%,30.198669%);fill-opacity:1;" d="M 86.664062 40.234375 C 86.921875 40.242188 87.171875 40.304688 87.425781 40.417969 C 88.410156 40.875 88.839844 42.039062 88.382812 43.027344 C 87.179688 45.652344 84.542969 47.28125 81.660156 47.1875 C 78.78125 47.09375 76.253906 45.296875 75.210938 42.597656 C 74.820312 41.585938 75.324219 40.4375 76.339844 40.054688 C 77.351562 39.664062 78.496094 40.167969 78.875 41.183594 C 79.347656 42.390625 80.492188 43.207031 81.789062 43.25 C 83.085938 43.292969 84.269531 42.550781 84.820312 41.378906 C 85.152344 40.640625 85.898438 40.207031 86.664062 40.234375 Z M 86.664062 40.234375 "/><g clip-rule="nonzero"><path style=" stroke:none;fill-rule:nonzero;fill:rgb(0%,0%,0%);fill-opacity:1;" d="M 89.707031 39.605469 C 89.652344 39.605469 89.605469 39.558594 89.605469 39.503906 C 89.605469 39.5 89.597656 39.144531 89.234375 38.773438 C 88.871094 38.402344 88.519531 38.402344 88.507812 38.402344 C 88.507812 38.402344 88.503906 38.402344 88.503906 38.402344 C 88.449219 38.402344 88.40625 38.359375 88.40625 38.304688 C 88.402344 38.25 88.445312 38.203125 88.503906 38.203125 C 88.523438 38.203125 88.949219 38.195312 89.378906 38.632812 C 89.800781 39.066406 89.808594 39.488281 89.808594 39.503906 C 89.808594 39.558594 89.761719 39.605469 89.707031 39.605469 Z M 89.707031 39.605469 "/><path style=" stroke:none;fill-rule:nonzero;fill:rgb(0%,0%,0%);fill-opacity:1;" d="M 89.105469 39.605469 C 89.050781 39.605469 89.003906 39.558594 89.003906 39.503906 C 89.003906 39.5 89 39.339844 88.835938 39.175781 C 88.667969 39.007812 88.511719 39.003906 88.503906 39.003906 C 88.449219 39.003906 88.40625 38.957031 88.40625 38.902344 C 88.40625 38.847656 88.449219 38.804688 88.503906 38.804688 C 88.515625 38.804688 88.75 38.804688 88.976562 39.03125 C 89.203125 39.261719 89.207031 39.496094 89.207031 39.503906 C 89.207031 39.558594 89.160156 39.605469 89.105469 39.605469 Z M 89.105469 39.605469 "/></g><path style=" stroke:none;fill-rule:nonzero;fill:rgb(0%,0%,0%);fill-opacity:1;" d="M 87.804688 40.40625 C 87.804688 40.539062 87.738281 40.605469 87.605469 40.605469 C 87.46875 40.605469 87.402344 40.539062 87.402344 40.40625 C 87.402344 40.273438 87.46875 40.207031 87.605469 40.207031 C 87.738281 40.207031 87.804688 40.273438 87.804688 40.40625 Z M 87.804688 40.40625 "/><g clip-rule="nonzero"><path style=" stroke:none;fill-rule:nonzero;fill:rgb(0%,0%,0%);fill-opacity:1;" d="M 89.085938 40.042969 L 87.964844 38.921875 C 87.8125 38.769531 87.542969 38.765625 87.371094 38.921875 L 84.917969 41.386719 C 84.757812 41.546875 84.757812 41.804688 84.917969 41.976562 L 86.039062 43.101562 C 86.117188 43.175781 86.222656 43.21875 86.332031 43.21875 C 86.441406 43.21875 86.546875 43.179688 86.632812 43.101562 L 89.089844 40.640625 C 89.246094 40.460938 89.242188 40.199219 89.085938 40.042969 Z M 85.800781 41.808594 C 85.691406 41.808594 85.601562 41.71875 85.601562 41.605469 C 85.601562 41.496094 85.691406 41.40625 85.800781 41.40625 C 85.910156 41.40625 86 41.496094 86 41.605469 C 86 41.71875 85.910156 41.808594 85.800781 41.808594 Z M 86.101562 41.105469 C 86.101562 40.996094 86.191406 40.90625 86.300781 40.90625 C 86.414062 40.90625 86.5 40.996094 86.5 41.105469 C 86.5 41.21875 86.414062 41.308594 86.300781 41.308594 C 86.191406 41.308594 86.101562 41.21875 86.101562 41.105469 Z M 86.402344 42.410156 C 86.292969 42.410156 86.203125 42.320312 86.203125 42.207031 C 86.203125 42.097656 86.292969 42.007812 86.402344 42.007812 C 86.511719 42.007812 86.601562 42.097656 86.601562 42.207031 C 86.601562 42.320312 86.511719 42.410156 86.402344 42.410156 Z M 86.902344 41.90625 C 86.792969 41.90625 86.703125 41.816406 86.703125 41.707031 C 86.703125 41.597656 86.792969 41.507812 86.902344 41.507812 C 87.011719 41.507812 87.101562 41.597656 87.101562 41.707031 C 87.101562 41.816406 87.011719 41.90625 86.902344 41.90625 Z M 87.605469 41.105469 C 87.214844 41.105469 86.902344 40.792969 86.902344 40.40625 C 86.902344 40.019531 87.214844 39.703125 87.605469 39.703125 C 87.992188 39.703125 88.304688 40.019531 88.304688 40.40625 C 88.304688 40.792969 87.992188 41.105469 87.605469 41.105469 Z M 87.605469 41.105469 "/></g><g clip-rule="nonzero"><g clip-rule="nonzero"><g clip-rule="nonzero"><g clip-rule="nonzero"><g clip-rule="nonzero"><g clip-rule="nonzero"><path style=" stroke:none;fill-rule:nonzero;fill:rgb(0%,0%,0%);fill-opacity:1;" d="M 97.195312 61.546875 C 97.136719 61.738281 96.734375 61.757812 96.589844 61.75 C 95.800781 61.695312 94.953125 61.492188 93.753906 61.164062 L 87.90625 59.308594 C 87.601562 59.210938 87.421875 58.910156 87.511719 58.632812 L 87.601562 58.347656 L 89.273438 58.878906 L 94.003906 60.378906 C 95.160156 60.695312 96.457031 61.039062 97.261719 61.097656 C 97.277344 61.105469 97.292969 61.117188 97.300781 61.132812 C 97.3125 61.152344 97.316406 61.171875 97.308594 61.191406 Z M 88.789062 56.210938 C 88.828125 56.222656 88.863281 56.25 88.878906 56.285156 L 89.003906 56.714844 C 89.003906 56.714844 89.003906 56.71875 89.003906 56.722656 C 89.109375 56.964844 89.285156 57.140625 89.519531 57.230469 L 90.152344 57.429688 C 90.914062 57.671875 91.171875 57.523438 91.421875 57.375 C 91.5 57.332031 91.570312 57.292969 91.65625 57.257812 C 91.847656 57.191406 91.992188 57.164062 92.117188 57.164062 C 91.9375 57.230469 91.777344 57.328125 91.621094 57.421875 C 91.273438 57.636719 90.945312 57.835938 90.425781 57.671875 L 89.554688 57.398438 C 89.382812 57.34375 89.164062 57.257812 89.007812 57.082031 C 88.953125 57.015625 88.78125 56.664062 88.710938 56.214844 C 88.734375 56.207031 88.757812 56.203125 88.789062 56.210938 Z M 91.832031 56.445312 C 91.953125 56.390625 92.066406 56.457031 92.175781 56.632812 L 92.417969 57.054688 C 92.183594 56.992188 91.960938 56.984375 91.585938 57.117188 C 91.511719 57.148438 91.445312 57.179688 91.382812 57.214844 C 91.40625 56.890625 91.585938 56.574219 91.832031 56.445312 Z M 92.980469 57.550781 L 92.695312 57.710938 C 92.671875 57.722656 92.648438 57.738281 92.628906 57.753906 C 92.472656 57.601562 92.320312 57.457031 92.175781 57.308594 C 92.273438 57.269531 92.382812 57.242188 92.496094 57.230469 C 92.511719 57.234375 92.523438 57.238281 92.535156 57.242188 C 92.644531 57.28125 92.75 57.339844 92.835938 57.417969 C 92.878906 57.460938 92.929688 57.503906 92.980469 57.550781 Z M 95.1875 59.25 L 94.726562 59.535156 C 94.648438 59.570312 94.582031 59.550781 94.558594 59.515625 C 94.535156 59.472656 94.566406 59.417969 94.648438 59.375 L 95.023438 59.144531 L 95.078125 59.179688 C 95.113281 59.203125 95.148438 59.226562 95.1875 59.25 Z M 95.546875 59.496094 C 95.421875 59.574219 95.320312 59.652344 95.226562 59.785156 C 95.128906 59.726562 95.03125 59.660156 94.929688 59.597656 L 95.332031 59.347656 C 95.40625 59.398438 95.476562 59.449219 95.546875 59.496094 Z M 94.882812 59.042969 L 94.558594 59.246094 C 94.53125 59.261719 94.507812 59.273438 94.488281 59.289062 C 94.410156 59.234375 94.332031 59.179688 94.257812 59.121094 L 94.667969 58.886719 C 94.757812 58.949219 94.832031 59.003906 94.882812 59.042969 Z M 94.53125 58.78125 L 94.109375 59.023438 C 94.027344 59.0625 93.960938 59.042969 93.9375 59.003906 C 93.914062 58.960938 93.945312 58.90625 94.027344 58.867188 L 94.378906 58.667969 C 94.429688 58.707031 94.480469 58.746094 94.53125 58.78125 Z M 94.238281 58.5625 L 93.9375 58.734375 C 93.898438 58.753906 93.867188 58.777344 93.839844 58.804688 C 93.765625 58.742188 93.691406 58.683594 93.617188 58.621094 L 94.015625 58.390625 C 94.09375 58.449219 94.167969 58.507812 94.238281 58.5625 Z M 93.882812 58.289062 L 93.488281 58.511719 C 93.40625 58.550781 93.339844 58.53125 93.316406 58.492188 C 93.308594 58.476562 93.304688 58.457031 93.316406 58.433594 C 93.320312 58.429688 93.320312 58.425781 93.324219 58.417969 C 93.328125 58.417969 93.328125 58.414062 93.328125 58.414062 C 93.332031 58.410156 93.335938 58.40625 93.339844 58.402344 C 93.339844 58.398438 93.34375 58.394531 93.347656 58.390625 C 93.351562 58.390625 93.351562 58.390625 93.351562 58.390625 C 93.367188 58.378906 93.382812 58.367188 93.40625 58.355469 L 93.730469 58.171875 C 93.78125 58.210938 93.832031 58.25 93.882812 58.289062 Z M 93.597656 58.0625 L 93.316406 58.226562 C 93.296875 58.234375 93.277344 58.246094 93.261719 58.257812 C 93.253906 58.265625 93.246094 58.269531 93.238281 58.277344 C 93.234375 58.28125 93.226562 58.285156 93.222656 58.289062 C 93.15625 58.230469 93.082031 58.167969 93.007812 58.101562 L 93.378906 57.890625 C 93.453125 57.945312 93.523438 58.003906 93.597656 58.0625 Z M 93.25 57.78125 L 92.867188 58 C 92.859375 58.003906 92.851562 58.007812 92.839844 58.007812 C 92.839844 58.011719 92.839844 58.011719 92.835938 58.011719 C 92.769531 58.03125 92.714844 58.015625 92.695312 57.980469 C 92.671875 57.945312 92.691406 57.890625 92.785156 57.84375 L 93.105469 57.660156 C 93.152344 57.699219 93.199219 57.738281 93.25 57.78125 Z M 89.378906 58.753906 C 89.386719 57.792969 88.644531 57.207031 88.238281 56.957031 C 88.261719 56.933594 88.285156 56.910156 88.3125 56.890625 C 88.445312 56.78125 88.46875 56.707031 88.5 56.613281 L 88.503906 56.597656 C 88.515625 56.558594 88.542969 56.476562 88.578125 56.394531 C 88.660156 56.765625 88.800781 57.078125 88.882812 57.171875 C 89.066406 57.378906 89.316406 57.476562 89.511719 57.539062 L 90.378906 57.816406 C 90.976562 58.003906 91.351562 57.773438 91.71875 57.550781 C 91.820312 57.488281 91.921875 57.425781 92.023438 57.375 C 92.1875 57.542969 92.359375 57.707031 92.535156 57.871094 C 92.511719 57.933594 92.523438 58 92.554688 58.050781 C 92.582031 58.097656 92.632812 58.136719 92.695312 58.15625 C 92.738281 58.171875 92.792969 58.175781 92.851562 58.164062 C 92.957031 58.257812 93.054688 58.34375 93.148438 58.425781 C 93.140625 58.472656 93.148438 58.519531 93.175781 58.558594 C 93.203125 58.609375 93.253906 58.648438 93.316406 58.667969 C 93.355469 58.679688 93.402344 58.683594 93.449219 58.679688 C 93.554688 58.769531 93.664062 58.855469 93.765625 58.9375 C 93.761719 58.984375 93.773438 59.03125 93.796875 59.070312 C 93.824219 59.117188 93.875 59.160156 93.9375 59.179688 C 93.984375 59.191406 94.035156 59.195312 94.089844 59.1875 C 94.191406 59.265625 94.292969 59.339844 94.398438 59.414062 C 94.378906 59.472656 94.386719 59.53125 94.417969 59.582031 C 94.445312 59.628906 94.5 59.671875 94.5625 59.691406 C 94.628906 59.710938 94.703125 59.710938 94.785156 59.679688 C 94.90625 59.761719 95.027344 59.839844 95.144531 59.910156 C 95.066406 60.042969 94.988281 60.21875 94.902344 60.464844 C 94.613281 60.390625 94.328125 60.3125 94.046875 60.234375 Z M 87.648438 58.207031 L 87.804688 57.703125 C 87.863281 57.460938 87.972656 57.246094 88.128906 57.066406 C 88.496094 57.285156 89.199219 57.824219 89.214844 58.703125 Z M 97.210938 60.945312 C 96.652344 60.894531 95.867188 60.714844 95.0625 60.507812 C 95.296875 59.859375 95.445312 59.738281 95.6875 59.59375 C 95.898438 59.738281 96.230469 59.9375 96.4375 60.046875 C 96.910156 60.300781 97.296875 60.546875 97.210938 60.945312 Z M 97.445312 61.066406 C 97.425781 61.035156 97.398438 61.007812 97.367188 60.988281 C 97.492188 60.441406 96.90625 60.128906 96.511719 59.917969 C 96.296875 59.804688 95.925781 59.582031 95.730469 59.441406 C 95.726562 59.4375 95.722656 59.4375 95.722656 59.433594 C 95.558594 59.320312 95.371094 59.191406 95.167969 59.058594 L 95.078125 59 C 95.0625 58.988281 93.585938 57.914062 92.949219 57.316406 C 92.863281 57.234375 92.753906 57.167969 92.640625 57.125 L 92.316406 56.566406 C 92.164062 56.3125 91.957031 56.21875 91.746094 56.3125 C 91.421875 56.480469 91.203125 56.894531 91.21875 57.308594 C 91.015625 57.414062 90.78125 57.472656 90.199219 57.289062 L 89.570312 57.089844 C 89.339844 57.003906 89.21875 56.820312 89.160156 56.679688 L 89.035156 56.25 C 89.035156 56.246094 89.035156 56.242188 89.03125 56.242188 C 88.996094 56.15625 88.917969 56.089844 88.824219 56.066406 C 88.738281 56.042969 88.652344 56.058594 88.585938 56.105469 C 88.46875 56.195312 88.398438 56.386719 88.347656 56.546875 L 88.339844 56.5625 C 88.3125 56.648438 88.300781 56.691406 88.199219 56.773438 C 87.921875 56.996094 87.726562 57.304688 87.644531 57.660156 L 87.351562 58.585938 C 87.242188 58.9375 87.46875 59.328125 87.859375 59.453125 L 93.710938 61.304688 C 94.925781 61.640625 95.785156 61.84375 96.585938 61.902344 C 96.613281 61.902344 97.246094 61.933594 97.355469 61.597656 L 97.46875 61.242188 C 97.484375 61.183594 97.476562 61.121094 97.445312 61.066406 "/></g></g></g></g></g></g><path style=" stroke:none;fill-rule:nonzero;fill:rgb(36.079407%,88.238525%,90.19928%);fill-opacity:1;" d="M 229.210938 26.050781 C 229.210938 25.636719 229.3125 25.222656 229.46875 24.707031 C 229.625 24.242188 229.882812 23.773438 230.195312 23.359375 C 230.558594 22.945312 231.027344 22.636719 231.546875 22.324219 C 232.066406 22.0625 232.742188 21.910156 233.46875 21.910156 C 234.199219 21.910156 234.871094 22.0625 235.394531 22.324219 C 235.914062 22.582031 236.382812 22.894531 236.746094 23.308594 C 237.160156 23.722656 237.421875 24.132812 237.628906 24.605469 C 237.835938 25.117188 237.890625 25.585938 237.890625 26.050781 L 237.890625 54.523438 C 237.890625 54.992188 237.835938 55.457031 237.628906 55.921875 C 237.421875 56.441406 237.160156 56.855469 236.800781 57.265625 C 236.433594 57.683594 235.964844 58.046875 235.445312 58.304688 C 234.925781 58.5625 234.25 58.667969 233.523438 58.667969 L 218.242188 58.667969 C 217.511719 58.667969 216.886719 58.5625 216.316406 58.304688 C 215.796875 58.046875 215.332031 57.730469 214.964844 57.320312 C 214.601562 56.90625 214.34375 56.492188 214.132812 55.972656 C 213.976562 55.507812 213.875 55.042969 213.875 54.574219 C 213.875 54.109375 213.976562 53.644531 214.1875 53.125 C 214.390625 52.660156 214.652344 52.246094 215.015625 51.832031 C 215.433594 51.46875 215.902344 51.15625 216.421875 50.902344 C 216.941406 50.644531 217.566406 50.488281 218.289062 50.488281 L 228.53125 50.488281 C 228.636719 50.488281 228.792969 50.433594 228.945312 50.332031 C 229.15625 50.226562 229.210938 50.019531 229.210938 49.707031 Z M 229.210938 26.050781 "/><path style=" stroke:none;fill-rule:nonzero;fill:rgb(0%,0%,0%);fill-opacity:1;" d="M 225.800781 33.121094 C 226.1875 33.121094 226.550781 33.191406 226.902344 33.335938 C 227.253906 33.480469 227.5625 33.6875 227.832031 33.957031 C 228.101562 34.222656 228.308594 34.53125 228.453125 34.882812 C 228.597656 35.230469 228.671875 35.59375 228.671875 35.972656 C 228.671875 36.355469 228.597656 36.71875 228.453125 37.066406 C 228.308594 37.421875 228.101562 37.726562 227.832031 37.996094 C 227.5625 38.265625 227.253906 38.46875 226.902344 38.617188 C 226.550781 38.757812 226.1875 38.832031 225.800781 38.832031 C 225.421875 38.832031 225.058594 38.757812 224.707031 38.617188 C 224.355469 38.46875 224.046875 38.265625 223.777344 37.996094 C 223.507812 37.726562 223.296875 37.421875 223.152344 37.066406 C 223.007812 36.71875 222.9375 36.355469 222.9375 35.972656 C 222.9375 35.59375 223.007812 35.230469 223.152344 34.882812 C 223.296875 34.53125 223.507812 34.222656 223.777344 33.957031 C 224.046875 33.6875 224.355469 33.480469 224.707031 33.335938 C 225.058594 33.191406 225.421875 33.121094 225.800781 33.121094 Z M 225.800781 33.121094 "/><path style=" stroke:none;fill-rule:nonzero;fill:rgb(54.899597%,32.159424%,100%);fill-opacity:1;" d="M 217.679688 47.804688 C 217.488281 48.011719 217.339844 48.257812 217.230469 48.546875 C 216.820312 49.675781 217.402344 50.921875 218.535156 51.328125 C 221.546875 52.425781 224.890625 51.625 227.0625 49.292969 C 229.242188 46.960938 229.800781 43.582031 228.488281 40.667969 C 227.996094 39.570312 226.699219 39.078125 225.609375 39.574219 C 224.507812 40.0625 224.011719 41.351562 224.511719 42.4375 C 225.09375 43.75 224.84375 45.28125 223.863281 46.328125 C 222.882812 47.382812 221.378906 47.734375 220.023438 47.25 C 219.183594 46.9375 218.257812 47.1875 217.679688 47.804688 Z M 217.679688 47.804688 "/><path style=" stroke:none;fill-rule:nonzero;fill:rgb(100%,87.059021%,34.899902%);fill-opacity:1;" d="M 220.789062 52.015625 C 220.9375 51.847656 221.050781 51.65625 221.128906 51.425781 C 221.429688 50.535156 220.953125 49.570312 220.054688 49.265625 C 217.675781 48.457031 215.070312 49.140625 213.402344 51.007812 C 211.738281 52.878906 211.355469 55.539062 212.4375 57.800781 C 212.839844 58.652344 213.863281 59.019531 214.710938 58.609375 C 215.566406 58.210938 215.933594 57.1875 215.523438 56.34375 C 215.042969 55.324219 215.214844 54.117188 215.960938 53.277344 C 216.714844 52.4375 217.890625 52.136719 218.960938 52.492188 C 219.625 52.722656 220.347656 52.511719 220.789062 52.015625 Z M 220.789062 52.015625 "/><path style=" stroke:none;fill-rule:nonzero;fill:rgb(100%,56.858826%,30.198669%);fill-opacity:1;" d="M 216.515625 41.25 C 216.265625 41.257812 216.019531 41.316406 215.777344 41.433594 C 214.820312 41.875 214.398438 43.003906 214.84375 43.960938 C 216.015625 46.503906 218.582031 48.082031 221.386719 47.992188 C 224.1875 47.898438 226.644531 46.160156 227.65625 43.542969 C 228.039062 42.558594 227.546875 41.449219 226.5625 41.078125 C 225.578125 40.699219 224.464844 41.191406 224.09375 42.171875 C 223.636719 43.34375 222.523438 44.132812 221.261719 44.175781 C 220 44.214844 218.847656 43.5 218.3125 42.359375 C 217.988281 41.648438 217.257812 41.226562 216.515625 41.25 Z M 216.515625 41.25 "/><g clip-rule="nonzero"><path style=" stroke:none;fill-rule:nonzero;fill:rgb(0%,0%,0%);fill-opacity:1;" d="M 213.558594 40.640625 C 213.609375 40.640625 213.652344 40.597656 213.652344 40.546875 C 213.652344 40.542969 213.664062 40.199219 214.015625 39.839844 C 214.367188 39.480469 214.710938 39.476562 214.722656 39.480469 C 214.777344 39.480469 214.824219 39.4375 214.824219 39.382812 C 214.824219 39.332031 214.78125 39.285156 214.726562 39.285156 C 214.707031 39.28125 214.289062 39.277344 213.875 39.703125 C 213.460938 40.121094 213.457031 40.527344 213.457031 40.546875 C 213.457031 40.597656 213.503906 40.640625 213.558594 40.640625 Z M 213.558594 40.640625 "/></g><path style=" stroke:none;fill-rule:nonzero;fill:rgb(0%,0%,0%);fill-opacity:1;" d="M 214.140625 40.640625 C 214.195312 40.640625 214.238281 40.597656 214.238281 40.546875 C 214.238281 40.539062 214.246094 40.386719 214.40625 40.222656 C 214.5625 40.066406 214.71875 40.0625 214.726562 40.0625 C 214.78125 40.058594 214.824219 40.015625 214.824219 39.964844 C 214.824219 39.910156 214.78125 39.863281 214.722656 39.863281 C 214.714844 39.863281 214.488281 39.867188 214.269531 40.089844 C 214.046875 40.308594 214.042969 40.535156 214.042969 40.546875 C 214.042969 40.597656 214.085938 40.640625 214.140625 40.640625 Z M 214.140625 40.640625 "/><path style=" stroke:none;fill-rule:nonzero;fill:rgb(0%,0%,0%);fill-opacity:1;" d="M 215.40625 41.421875 C 215.40625 41.550781 215.472656 41.613281 215.601562 41.613281 C 215.730469 41.613281 215.796875 41.550781 215.796875 41.421875 C 215.796875 41.289062 215.730469 41.222656 215.601562 41.222656 C 215.472656 41.222656 215.40625 41.289062 215.40625 41.421875 Z M 215.40625 41.421875 "/><g clip-rule="nonzero"><path style=" stroke:none;fill-rule:nonzero;fill:rgb(0%,0%,0%);fill-opacity:1;" d="M 214.160156 41.070312 L 215.253906 39.980469 C 215.398438 39.835938 215.664062 39.832031 215.824219 39.980469 L 218.210938 42.371094 C 218.367188 42.523438 218.371094 42.777344 218.210938 42.941406 L 217.121094 44.027344 C 217.050781 44.105469 216.945312 44.144531 216.835938 44.144531 C 216.730469 44.144531 216.628906 44.105469 216.546875 44.027344 L 214.152344 41.648438 C 214.003906 41.472656 214.007812 41.21875 214.160156 41.070312 Z M 217.359375 42.777344 C 217.464844 42.777344 217.550781 42.6875 217.550781 42.582031 C 217.550781 42.476562 217.464844 42.390625 217.359375 42.390625 C 217.246094 42.390625 217.160156 42.476562 217.160156 42.582031 C 217.160156 42.6875 217.246094 42.777344 217.359375 42.777344 Z M 217.066406 42.097656 C 217.066406 41.992188 216.976562 41.90625 216.867188 41.90625 C 216.761719 41.90625 216.671875 41.992188 216.671875 42.097656 C 216.671875 42.203125 216.761719 42.289062 216.867188 42.289062 C 216.976562 42.289062 217.066406 42.203125 217.066406 42.097656 Z M 216.773438 43.359375 C 216.878906 43.359375 216.964844 43.269531 216.964844 43.164062 C 216.964844 43.058594 216.878906 42.972656 216.773438 42.972656 C 216.664062 42.972656 216.578125 43.058594 216.578125 43.164062 C 216.578125 43.269531 216.664062 43.359375 216.773438 43.359375 Z M 216.285156 42.875 C 216.390625 42.875 216.480469 42.785156 216.480469 42.679688 C 216.480469 42.574219 216.390625 42.488281 216.285156 42.488281 C 216.175781 42.488281 216.089844 42.574219 216.089844 42.679688 C 216.089844 42.785156 216.175781 42.875 216.285156 42.875 Z M 215.601562 42.097656 C 215.976562 42.097656 216.285156 41.796875 216.285156 41.421875 C 216.285156 41.042969 215.976562 40.738281 215.601562 40.738281 C 215.226562 40.738281 214.921875 41.042969 214.921875 41.421875 C 214.921875 41.796875 215.226562 42.097656 215.601562 42.097656 Z M 215.601562 42.097656 "/></g><g clip-rule="nonzero"><g clip-rule="nonzero"><g clip-rule="nonzero"><g clip-rule="nonzero"><g clip-rule="nonzero"><g clip-rule="nonzero"><path style=" stroke:none;fill-rule:nonzero;fill:rgb(0%,0%,0%);fill-opacity:1;" d="M 206.269531 61.902344 C 206.328125 62.089844 206.714844 62.109375 206.859375 62.101562 C 207.625 62.046875 208.453125 61.851562 209.621094 61.527344 L 215.308594 59.734375 C 215.605469 59.640625 215.777344 59.347656 215.691406 59.082031 L 215.605469 58.804688 L 213.976562 59.320312 L 209.371094 60.773438 C 208.25 61.078125 206.988281 61.40625 206.207031 61.46875 C 206.1875 61.476562 206.175781 61.488281 206.164062 61.503906 C 206.15625 61.523438 206.152344 61.539062 206.15625 61.554688 Z M 214.449219 56.734375 C 214.414062 56.746094 214.378906 56.773438 214.363281 56.804688 L 214.242188 57.21875 C 214.242188 57.222656 214.242188 57.226562 214.238281 57.230469 C 214.136719 57.464844 213.964844 57.632812 213.734375 57.722656 L 213.121094 57.914062 C 212.378906 58.148438 212.128906 58 211.886719 57.863281 C 211.8125 57.820312 211.746094 57.777344 211.660156 57.75 C 211.472656 57.683594 211.332031 57.65625 211.210938 57.652344 C 211.386719 57.722656 211.542969 57.816406 211.695312 57.90625 C 212.03125 58.113281 212.351562 58.308594 212.859375 58.148438 L 213.703125 57.878906 C 213.871094 57.828125 214.085938 57.746094 214.234375 57.574219 C 214.289062 57.511719 214.453125 57.171875 214.527344 56.738281 C 214.503906 56.726562 214.476562 56.726562 214.449219 56.734375 Z M 211.488281 56.960938 C 211.371094 56.90625 211.261719 56.96875 211.15625 57.140625 L 210.917969 57.546875 C 211.148438 57.492188 211.363281 57.484375 211.726562 57.613281 C 211.800781 57.636719 211.867188 57.671875 211.921875 57.707031 C 211.902344 57.390625 211.730469 57.085938 211.488281 56.960938 Z M 210.371094 58.027344 L 210.644531 58.1875 C 210.671875 58.199219 210.691406 58.214844 210.710938 58.226562 C 210.867188 58.082031 211.011719 57.941406 211.15625 57.796875 C 211.054688 57.757812 210.953125 57.734375 210.839844 57.722656 C 210.828125 57.726562 210.816406 57.730469 210.800781 57.734375 C 210.695312 57.765625 210.59375 57.828125 210.511719 57.902344 C 210.46875 57.945312 210.421875 57.988281 210.371094 58.027344 Z M 208.226562 59.679688 L 208.671875 59.953125 C 208.75 59.988281 208.8125 59.96875 208.832031 59.933594 C 208.859375 59.890625 208.828125 59.839844 208.75 59.800781 L 208.382812 59.574219 L 208.332031 59.605469 C 208.296875 59.632812 208.257812 59.65625 208.226562 59.679688 Z M 207.875 59.917969 C 207.996094 59.988281 208.09375 60.066406 208.1875 60.195312 C 208.28125 60.136719 208.378906 60.074219 208.472656 60.011719 L 208.085938 59.773438 C 208.011719 59.820312 207.941406 59.867188 207.875 59.917969 Z M 208.519531 59.476562 L 208.835938 59.675781 C 208.863281 59.6875 208.886719 59.699219 208.90625 59.714844 C 208.980469 59.664062 209.054688 59.609375 209.128906 59.554688 L 208.726562 59.324219 C 208.644531 59.386719 208.570312 59.441406 208.519531 59.476562 Z M 208.863281 59.222656 L 209.273438 59.457031 C 209.355469 59.492188 209.417969 59.472656 209.441406 59.441406 C 209.464844 59.398438 209.433594 59.34375 209.355469 59.308594 L 209.011719 59.109375 C 208.957031 59.152344 208.910156 59.191406 208.863281 59.222656 Z M 209.144531 59.011719 L 209.441406 59.179688 C 209.480469 59.199219 209.507812 59.21875 209.53125 59.242188 C 209.605469 59.1875 209.679688 59.128906 209.753906 59.070312 L 209.363281 58.84375 C 209.289062 58.902344 209.21875 58.960938 209.144531 59.011719 Z M 209.496094 58.742188 L 209.878906 58.964844 C 209.957031 58.996094 210.023438 58.980469 210.046875 58.945312 C 210.054688 58.929688 210.054688 58.90625 210.046875 58.886719 C 210.042969 58.882812 210.039062 58.875 210.039062 58.871094 C 210.035156 58.871094 210.035156 58.867188 210.03125 58.863281 C 210.03125 58.863281 210.027344 58.859375 210.023438 58.855469 C 210.019531 58.851562 210.015625 58.847656 210.011719 58.84375 C 209.996094 58.835938 209.980469 58.824219 209.957031 58.8125 L 209.640625 58.628906 C 209.59375 58.667969 209.542969 58.707031 209.496094 58.742188 Z M 209.773438 58.527344 L 210.046875 58.683594 C 210.066406 58.695312 210.078125 58.707031 210.097656 58.71875 C 210.105469 58.722656 210.113281 58.726562 210.121094 58.730469 C 210.125 58.738281 210.132812 58.742188 210.136719 58.746094 C 210.203125 58.691406 210.269531 58.625 210.34375 58.566406 L 209.980469 58.355469 C 209.914062 58.414062 209.84375 58.472656 209.773438 58.527344 Z M 210.109375 58.253906 L 210.480469 58.46875 C 210.488281 58.472656 210.496094 58.472656 210.503906 58.476562 C 210.507812 58.476562 210.507812 58.476562 210.507812 58.480469 C 210.578125 58.496094 210.628906 58.480469 210.648438 58.449219 C 210.667969 58.414062 210.652344 58.359375 210.5625 58.316406 L 210.246094 58.136719 C 210.207031 58.175781 210.15625 58.214844 210.109375 58.253906 Z M 213.875 59.199219 C 213.863281 58.265625 214.585938 57.695312 214.984375 57.453125 C 214.964844 57.433594 214.9375 57.410156 214.914062 57.390625 C 214.78125 57.285156 214.757812 57.214844 214.730469 57.121094 L 214.722656 57.105469 C 214.710938 57.066406 214.691406 56.988281 214.652344 56.910156 C 214.570312 57.269531 214.4375 57.570312 214.355469 57.664062 C 214.179688 57.867188 213.9375 57.960938 213.746094 58.019531 L 212.898438 58.289062 C 212.320312 58.472656 211.953125 58.246094 211.601562 58.03125 C 211.5 57.972656 211.402344 57.910156 211.300781 57.863281 C 211.140625 58.019531 210.976562 58.179688 210.804688 58.34375 C 210.824219 58.402344 210.816406 58.464844 210.785156 58.511719 C 210.761719 58.5625 210.710938 58.601562 210.648438 58.617188 C 210.605469 58.632812 210.554688 58.632812 210.496094 58.625 C 210.394531 58.71875 210.300781 58.800781 210.207031 58.878906 C 210.214844 58.925781 210.207031 58.96875 210.183594 59.007812 C 210.15625 59.058594 210.105469 59.09375 210.042969 59.113281 C 210.007812 59.125 209.960938 59.128906 209.917969 59.125 C 209.808594 59.210938 209.707031 59.296875 209.605469 59.375 C 209.613281 59.421875 209.601562 59.464844 209.578125 59.503906 C 209.550781 59.550781 209.503906 59.585938 209.4375 59.609375 C 209.394531 59.621094 209.347656 59.625 209.292969 59.617188 C 209.191406 59.691406 209.089844 59.765625 208.992188 59.832031 C 209.011719 59.894531 209 59.949219 208.972656 60 C 208.945312 60.046875 208.894531 60.082031 208.832031 60.105469 C 208.769531 60.125 208.695312 60.125 208.617188 60.09375 C 208.5 60.175781 208.382812 60.246094 208.265625 60.316406 C 208.339844 60.445312 208.414062 60.617188 208.503906 60.855469 C 208.78125 60.785156 209.0625 60.707031 209.335938 60.632812 Z M 215.558594 58.664062 L 215.402344 58.179688 C 215.351562 57.945312 215.246094 57.734375 215.09375 57.5625 C 214.730469 57.773438 214.050781 58.296875 214.035156 59.148438 Z M 206.257812 61.316406 C 206.796875 61.269531 207.558594 61.097656 208.347656 60.894531 C 208.117188 60.269531 207.972656 60.152344 207.738281 60.011719 C 207.535156 60.152344 207.210938 60.34375 207.007812 60.449219 C 206.546875 60.695312 206.171875 60.929688 206.257812 61.316406 Z M 206.027344 61.4375 C 206.042969 61.40625 206.070312 61.382812 206.101562 61.363281 C 205.980469 60.832031 206.550781 60.53125 206.933594 60.324219 C 207.144531 60.210938 207.507812 59.996094 207.695312 59.863281 C 207.699219 59.859375 207.699219 59.859375 207.703125 59.855469 C 207.859375 59.742188 208.046875 59.621094 208.246094 59.492188 L 208.332031 59.433594 C 208.347656 59.425781 209.78125 58.382812 210.398438 57.804688 C 210.488281 57.722656 210.589844 57.660156 210.703125 57.617188 L 211.015625 57.078125 C 211.167969 56.828125 211.367188 56.738281 211.570312 56.832031 C 211.890625 56.996094 212.097656 57.394531 212.082031 57.796875 C 212.285156 57.898438 212.511719 57.953125 213.078125 57.773438 L 213.6875 57.582031 C 213.910156 57.5 214.027344 57.320312 214.089844 57.183594 L 214.207031 56.773438 C 214.210938 56.769531 214.210938 56.765625 214.210938 56.761719 C 214.25 56.679688 214.324219 56.617188 214.417969 56.59375 C 214.5 56.570312 214.582031 56.582031 214.644531 56.632812 C 214.761719 56.71875 214.832031 56.902344 214.878906 57.054688 L 214.882812 57.074219 C 214.910156 57.15625 214.925781 57.199219 215.019531 57.277344 C 215.292969 57.496094 215.480469 57.792969 215.558594 58.132812 L 215.84375 59.03125 C 215.957031 59.375 215.734375 59.753906 215.351562 59.871094 L 209.660156 61.667969 C 208.480469 61.996094 207.644531 62.191406 206.863281 62.246094 C 206.839844 62.25 206.21875 62.277344 206.117188 61.953125 L 206.003906 61.605469 C 205.988281 61.550781 205.996094 61.492188 206.027344 61.4375 "/></g></g></g></g></g></g><g style="fill:rgb(0%,0%,0%);fill-opacity:1;"><g transform="translate(161.839185, 58.935205)"><path style="stroke:none;" d="M 3.898438 -4.167969 C 3.898438 -3.632812 4.007812 -3.152344 4.222656 -2.671875 C 4.433594 -2.136719 4.703125 -1.710938 5.128906 -1.335938 C 5.503906 -0.910156 5.984375 -0.585938 6.570312 -0.375 C 7.105469 -0.105469 7.746094 0 8.496094 0 C 9.242188 0 9.882812 -0.105469 10.472656 -0.375 C 11.007812 -0.640625 11.488281 -0.960938 11.863281 -1.390625 C 12.234375 -1.816406 12.503906 -2.242188 12.714844 -2.777344 C 12.875 -3.257812 12.984375 -3.738281 12.984375 -4.222656 L 12.984375 -33.609375 C 12.984375 -34.089844 12.875 -34.570312 12.664062 -35.101562 C 12.449219 -35.585938 12.183594 -36.011719 11.808594 -36.4375 C 11.378906 -36.8125 10.898438 -37.132812 10.367188 -37.402344 C 9.832031 -37.667969 9.191406 -37.828125 8.441406 -37.828125 C 7.695312 -37.828125 7 -37.667969 6.464844 -37.402344 C 5.929688 -37.132812 5.449219 -36.8125 5.074219 -36.386719 C 4.648438 -35.957031 4.382812 -35.53125 4.167969 -35.050781 C 3.953125 -34.515625 3.898438 -34.035156 3.898438 -33.609375 Z M 3.898438 -4.167969 "/></g></g><g style="fill:rgb(0%,0%,0%);fill-opacity:1;"><g transform="translate(127.459891, 58.935205)"><path style="stroke:none;" d="M 26.609375 -21.691406 C 27.035156 -22.546875 27.410156 -23.402344 27.625 -24.257812 C 27.835938 -25.113281 27.996094 -26.019531 27.996094 -26.980469 C 27.996094 -28.371094 27.730469 -29.707031 27.195312 -30.988281 C 26.660156 -32.273438 25.914062 -33.445312 24.953125 -34.460938 C 23.988281 -35.476562 22.761719 -36.277344 21.320312 -36.921875 C 19.875 -37.5625 18.21875 -37.882812 16.402344 -37.882812 L 8.601562 -37.882812 C 7.855469 -37.882812 7.160156 -37.722656 6.625 -37.453125 C 6.039062 -37.1875 5.558594 -36.867188 5.183594 -36.4375 C 4.753906 -36.011719 4.488281 -35.585938 4.273438 -35.101562 C 4.0625 -34.570312 4.007812 -34.089844 4.007812 -33.609375 L 4.007812 -4.273438 C 4.007812 -3.792969 4.0625 -3.3125 4.273438 -2.777344 C 4.488281 -2.242188 4.753906 -1.816406 5.183594 -1.390625 C 5.558594 -0.960938 6.039062 -0.585938 6.625 -0.320312 C 7.160156 -0.0546875 7.855469 0.0546875 8.601562 0.0546875 L 17.578125 0.0546875 C 19.714844 0.0546875 21.640625 -0.265625 23.347656 -0.910156 C 25.058594 -1.550781 26.5 -2.40625 27.675781 -3.527344 C 28.851562 -4.648438 29.707031 -5.929688 30.347656 -7.425781 C 30.9375 -8.921875 31.257812 -10.527344 31.257812 -12.234375 C 31.257812 -13.945312 30.882812 -15.601562 30.242188 -17.203125 C 29.546875 -18.808594 28.53125 -20.144531 27.140625 -21.320312 C 27.035156 -21.371094 26.980469 -21.425781 26.875 -21.480469 C 26.769531 -21.53125 26.714844 -21.585938 26.609375 -21.691406 Z M 16.347656 -24.472656 L 13.679688 -24.472656 C 13.570312 -24.472656 13.410156 -24.523438 13.25 -24.683594 C 13.035156 -24.792969 12.984375 -25.003906 12.984375 -25.324219 L 12.984375 -28.585938 C 12.984375 -28.851562 13.035156 -29.066406 13.25 -29.226562 C 13.410156 -29.332031 13.570312 -29.441406 13.679688 -29.441406 L 16.347656 -29.441406 C 17.152344 -29.441406 17.792969 -29.226562 18.21875 -28.796875 C 18.648438 -28.371094 18.914062 -27.785156 18.914062 -26.980469 C 18.914062 -26.179688 18.648438 -25.539062 18.21875 -25.113281 C 17.738281 -24.683594 17.097656 -24.472656 16.347656 -24.472656 Z M 12.984375 -9.402344 L 12.984375 -15.335938 C 12.984375 -15.601562 13.035156 -15.816406 13.25 -15.976562 C 13.410156 -16.082031 13.570312 -16.1875 13.679688 -16.1875 L 17.578125 -16.1875 C 20.675781 -16.1875 22.226562 -14.90625 22.226562 -12.394531 C 22.226562 -9.832031 20.675781 -8.546875 17.578125 -8.546875 L 13.679688 -8.546875 C 13.570312 -8.546875 13.410156 -8.601562 13.25 -8.761719 C 13.035156 -8.871094 12.984375 -9.082031 12.984375 -9.402344 Z M 12.984375 -9.402344 "/></g></g><g style="fill:rgb(0%,0%,0%);fill-opacity:1;"><g transform="translate(178.020168, 58.152724)"><path style="stroke:none;" d="M 23.296875 -15.976562 C 25.324219 -17.097656 26.929688 -18.488281 28.050781 -20.089844 C 29.121094 -21.691406 29.707031 -23.777344 29.707031 -26.234375 C 29.707031 -27.675781 29.386719 -29.121094 28.851562 -30.507812 C 28.316406 -31.898438 27.515625 -33.179688 26.449219 -34.300781 C 25.378906 -35.371094 24.097656 -36.277344 22.546875 -36.921875 C 20.996094 -37.5625 19.234375 -37.933594 17.257812 -37.933594 L 8.546875 -37.933594 C 7.800781 -37.933594 7.105469 -37.773438 6.570312 -37.507812 C 6.039062 -37.242188 5.558594 -36.921875 5.183594 -36.492188 C 4.753906 -36.066406 4.488281 -35.636719 4.273438 -35.15625 C 4.0625 -34.621094 4.007812 -34.140625 4.007812 -33.660156 L 4.007812 -4.273438 C 4.007812 -3.792969 4.0625 -3.3125 4.273438 -2.832031 C 4.488281 -2.296875 4.753906 -1.871094 5.128906 -1.441406 C 5.503906 -1.015625 5.984375 -0.640625 6.519531 -0.375 C 7.054688 -0.105469 7.746094 0 8.496094 0 C 9.242188 0 9.882812 -0.105469 10.472656 -0.375 C 11.007812 -0.640625 11.488281 -0.960938 11.863281 -1.390625 C 12.234375 -1.816406 12.503906 -2.242188 12.714844 -2.777344 C 12.875 -3.257812 12.984375 -3.738281 12.984375 -4.222656 L 12.984375 -14 C 12.984375 -14.210938 13.035156 -14.371094 13.144531 -14.425781 C 13.25 -14.480469 13.304688 -14.53125 13.359375 -14.53125 C 13.570312 -14.53125 13.839844 -14.371094 14.050781 -14.105469 L 21.53125 -2.082031 C 21.90625 -1.441406 22.441406 -0.960938 23.082031 -0.585938 C 23.722656 -0.160156 24.523438 0 25.433594 0 C 26.179688 0 26.820312 -0.105469 27.355469 -0.375 C 27.890625 -0.640625 28.371094 -0.960938 28.746094 -1.390625 C 29.121094 -1.761719 29.386719 -2.191406 29.601562 -2.726562 C 29.8125 -3.257812 29.921875 -3.738281 29.921875 -4.222656 C 29.921875 -4.96875 29.707031 -5.71875 29.28125 -6.359375 C 29.066406 -6.625 28.636719 -7.265625 27.996094 -8.335938 C 27.355469 -9.351562 26.660156 -10.472656 25.914062 -11.699219 C 25.484375 -12.289062 25.113281 -12.875 24.792969 -13.410156 C 24.472656 -13.945312 24.148438 -14.480469 23.882812 -14.90625 C 23.5625 -15.335938 23.402344 -15.707031 23.296875 -15.976562 Z M 12.929688 -23.882812 L 12.929688 -28.585938 C 12.929688 -28.851562 12.984375 -29.066406 13.195312 -29.226562 C 13.359375 -29.332031 13.519531 -29.441406 13.625 -29.441406 L 17.152344 -29.441406 C 18.21875 -29.441406 19.074219 -29.121094 19.664062 -28.585938 C 20.25 -28.050781 20.570312 -27.25 20.570312 -26.234375 C 20.570312 -25.164062 20.25 -24.363281 19.664062 -23.828125 C 19.074219 -23.296875 18.21875 -23.027344 17.152344 -23.027344 L 13.625 -23.027344 C 13.519531 -23.027344 13.359375 -23.082031 13.195312 -23.242188 C 12.984375 -23.347656 12.929688 -23.5625 12.929688 -23.882812 Z M 12.929688 -23.882812 "/></g></g><g style="fill:rgb(0%,0%,0%);fill-opacity:1;"><g transform="translate(245.685778, 58.935205)"><path style="stroke:none;" d="M 3.898438 -4.167969 C 3.898438 -3.632812 4.007812 -3.152344 4.222656 -2.671875 C 4.433594 -2.136719 4.703125 -1.710938 5.128906 -1.335938 C 5.503906 -0.910156 5.984375 -0.585938 6.570312 -0.375 C 7.105469 -0.105469 7.746094 0 8.496094 0 C 9.242188 0 9.882812 -0.105469 10.472656 -0.375 C 11.007812 -0.640625 11.488281 -0.960938 11.863281 -1.390625 C 12.234375 -1.816406 12.503906 -2.242188 12.714844 -2.777344 C 12.875 -3.257812 12.984375 -3.738281 12.984375 -4.222656 L 12.984375 -33.609375 C 12.984375 -34.089844 12.875 -34.570312 12.664062 -35.101562 C 12.449219 -35.585938 12.183594 -36.011719 11.808594 -36.4375 C 11.378906 -36.8125 10.898438 -37.132812 10.367188 -37.402344 C 9.832031 -37.667969 9.191406 -37.828125 8.441406 -37.828125 C 7.695312 -37.828125 7 -37.667969 6.464844 -37.402344 C 5.929688 -37.132812 5.449219 -36.8125 5.074219 -36.386719 C 4.648438 -35.957031 4.382812 -35.53125 4.167969 -35.050781 C 3.953125 -34.515625 3.898438 -34.035156 3.898438 -33.609375 Z M 3.898438 -4.167969 "/></g></g><g style="fill:rgb(0%,0%,0%);fill-opacity:1;"><g transform="translate(263.772348, 58.935205)"><path style="stroke:none;" d="M 13.035156 -26.769531 L 13.035156 -33.660156 C 13.035156 -34.140625 12.929688 -34.621094 12.714844 -35.15625 C 12.503906 -35.636719 12.234375 -36.066406 11.863281 -36.492188 C 11.433594 -36.867188 10.953125 -37.1875 10.417969 -37.453125 C 9.882812 -37.722656 9.242188 -37.882812 8.496094 -37.882812 C 7.746094 -37.882812 7.054688 -37.722656 6.519531 -37.453125 C 5.984375 -37.1875 5.503906 -36.867188 5.128906 -36.4375 C 4.703125 -36.011719 4.433594 -35.585938 4.222656 -35.101562 C 4.007812 -34.570312 3.953125 -34.089844 3.953125 -33.609375 L 3.953125 -4.222656 C 3.953125 -3.738281 4.007812 -3.257812 4.222656 -2.777344 C 4.433594 -2.242188 4.703125 -1.816406 5.074219 -1.390625 C 5.449219 -0.960938 5.929688 -0.585938 6.464844 -0.320312 C 7 -0.0546875 7.695312 0.0546875 8.441406 0.0546875 C 9.191406 0.0546875 9.832031 -0.0546875 10.417969 -0.320312 C 10.953125 -0.585938 11.433594 -0.910156 11.808594 -1.335938 C 12.183594 -1.761719 12.449219 -2.191406 12.664062 -2.726562 C 12.824219 -3.207031 12.929688 -3.6875 12.929688 -4.167969 L 12.929688 -13.25 L 26.128906 -1.121094 C 26.5 -0.746094 26.929688 -0.425781 27.464844 -0.214844 C 27.996094 0 28.585938 0.105469 29.28125 0.105469 C 30.027344 0.105469 30.667969 0 31.257812 -0.265625 C 31.789062 -0.535156 32.273438 -0.855469 32.644531 -1.28125 C 33.019531 -1.710938 33.285156 -2.136719 33.5 -2.671875 C 33.714844 -3.207031 33.820312 -3.6875 33.820312 -4.167969 C 33.820312 -5.289062 33.339844 -6.304688 32.433594 -7.160156 L 18.488281 -19.929688 L 29.921875 -30.507812 C 30.402344 -30.9375 30.777344 -31.417969 30.988281 -31.949219 C 31.203125 -32.484375 31.308594 -33.074219 31.308594 -33.609375 C 31.308594 -34.035156 31.203125 -34.515625 31.042969 -35.050781 C 30.828125 -35.53125 30.5625 -36.011719 30.242188 -36.4375 C 29.867188 -36.867188 29.386719 -37.1875 28.851562 -37.453125 C 28.316406 -37.722656 27.675781 -37.882812 26.929688 -37.882812 C 26.234375 -37.882812 25.644531 -37.773438 25.113281 -37.5625 C 24.578125 -37.347656 24.148438 -37.027344 23.777344 -36.652344 Z M 13.035156 -26.769531 "/></g></g><g style="fill:rgb(0%,0%,0%);fill-opacity:1;"><g transform="translate(293.836887, 58.152724)"><path style="stroke:none;" d="M 8.441406 -37.773438 C 7.695312 -37.773438 7 -37.613281 6.464844 -37.347656 C 5.929688 -37.082031 5.449219 -36.761719 5.074219 -36.332031 C 4.648438 -35.90625 4.382812 -35.476562 4.167969 -34.996094 C 3.953125 -34.460938 3.898438 -33.980469 3.898438 -33.554688 C 3.898438 -33.019531 4.007812 -32.484375 4.222656 -32.003906 C 4.433594 -31.523438 4.703125 -31.097656 5.128906 -30.722656 C 5.503906 -30.292969 5.984375 -29.972656 6.570312 -29.761719 C 7.105469 -29.546875 7.746094 -29.441406 8.496094 -29.441406 L 14.691406 -29.441406 C 14.800781 -29.441406 14.960938 -29.332031 15.121094 -29.226562 C 15.28125 -29.066406 15.386719 -28.851562 15.386719 -28.585938 L 15.386719 -4.222656 C 15.386719 -3.738281 15.441406 -3.257812 15.65625 -2.777344 C 15.867188 -2.242188 16.136719 -1.816406 16.511719 -1.390625 C 16.882812 -0.960938 17.363281 -0.585938 17.898438 -0.320312 C 18.433594 -0.0546875 19.128906 0.0546875 19.875 0.0546875 C 20.625 0.0546875 21.265625 -0.0546875 21.851562 -0.320312 C 22.386719 -0.585938 22.867188 -0.910156 23.242188 -1.335938 C 23.617188 -1.761719 23.882812 -2.191406 24.097656 -2.726562 C 24.257812 -3.207031 24.363281 -3.6875 24.363281 -4.167969 L 24.363281 -28.53125 C 24.363281 -28.796875 24.417969 -29.011719 24.632812 -29.171875 C 24.792969 -29.28125 24.953125 -29.386719 25.058594 -29.386719 L 31.257812 -29.386719 C 32.003906 -29.386719 32.644531 -29.492188 33.234375 -29.761719 C 33.769531 -30.027344 34.25 -30.347656 34.621094 -30.777344 C 34.996094 -31.148438 35.265625 -31.578125 35.476562 -32.113281 C 35.636719 -32.644531 35.746094 -33.125 35.746094 -33.609375 C 35.746094 -34.035156 35.636719 -34.515625 35.425781 -35.050781 C 35.210938 -35.53125 34.941406 -35.957031 34.570312 -36.386719 C 34.140625 -36.761719 33.660156 -37.082031 33.125 -37.347656 C 32.59375 -37.613281 31.949219 -37.773438 31.203125 -37.773438 Z M 8.441406 -37.773438 "/></g></g><g style="fill:rgb(0%,0%,0%);fill-opacity:1;"><g transform="translate(331.345206, 58.935205)"><path style="stroke:none;" d="M 8.496094 0 L 23.617188 0 C 24.363281 0 25.003906 -0.105469 25.59375 -0.375 C 26.128906 -0.640625 26.609375 -0.960938 26.980469 -1.390625 C 27.355469 -1.816406 27.625 -2.242188 27.835938 -2.777344 C 27.996094 -3.257812 28.105469 -3.738281 28.105469 -4.222656 C 28.105469 -4.703125 27.996094 -5.183594 27.785156 -5.71875 C 27.570312 -6.199219 27.300781 -6.625 26.929688 -7.054688 C 26.5 -7.425781 26.019531 -7.746094 25.484375 -8.015625 C 24.953125 -8.28125 24.3125 -8.441406 23.5625 -8.441406 L 13.625 -8.441406 C 13.519531 -8.441406 13.359375 -8.496094 13.195312 -8.601562 C 12.984375 -8.710938 12.929688 -8.921875 12.929688 -9.242188 L 12.929688 -14.800781 C 12.929688 -15.066406 12.984375 -15.28125 13.195312 -15.441406 C 13.359375 -15.546875 13.519531 -15.65625 13.625 -15.65625 L 20.785156 -15.65625 C 21.53125 -15.65625 22.171875 -15.761719 22.707031 -16.027344 C 23.242188 -16.296875 23.722656 -16.617188 24.097656 -17.042969 C 24.472656 -17.472656 24.738281 -17.898438 24.953125 -18.433594 C 25.164062 -18.914062 25.273438 -19.394531 25.273438 -19.875 C 25.273438 -20.355469 25.164062 -20.835938 24.953125 -21.371094 C 24.738281 -21.851562 24.472656 -22.28125 24.097656 -22.707031 C 23.667969 -23.082031 23.1875 -23.402344 22.65625 -23.667969 C 22.121094 -23.9375 21.480469 -24.097656 20.730469 -24.097656 L 13.570312 -24.097656 C 13.464844 -24.097656 13.304688 -24.148438 13.144531 -24.257812 C 12.929688 -24.363281 12.875 -24.578125 12.875 -24.898438 L 12.875 -28.585938 C 12.875 -28.851562 12.929688 -29.066406 13.144531 -29.226562 C 13.304688 -29.332031 13.464844 -29.441406 13.570312 -29.441406 L 23.507812 -29.441406 C 24.257812 -29.441406 24.898438 -29.546875 25.484375 -29.8125 C 26.019531 -30.082031 26.5 -30.402344 26.875 -30.828125 C 27.25 -31.203125 27.515625 -31.628906 27.730469 -32.164062 C 27.890625 -32.644531 27.996094 -33.125 27.996094 -33.609375 C 27.996094 -34.089844 27.890625 -34.570312 27.675781 -35.101562 C 27.464844 -35.585938 27.195312 -36.011719 26.820312 -36.4375 C 26.394531 -36.8125 25.914062 -37.132812 25.378906 -37.402344 C 24.84375 -37.667969 24.203125 -37.828125 23.457031 -37.828125 L 8.335938 -37.828125 C 7.585938 -37.828125 6.890625 -37.667969 6.359375 -37.402344 C 5.824219 -37.132812 5.34375 -36.8125 4.96875 -36.386719 C 4.542969 -35.957031 4.273438 -35.53125 4.0625 -35.050781 C 3.847656 -34.515625 3.792969 -34.035156 3.792969 -33.609375 L 3.792969 -4.167969 C 3.792969 -3.632812 3.898438 -3.097656 4.113281 -2.617188 C 4.328125 -2.082031 4.648438 -1.65625 5.074219 -1.28125 C 5.503906 -0.855469 5.984375 -0.535156 6.570312 -0.320312 C 7.160156 -0.105469 7.800781 0 8.496094 0 Z M 8.496094 0 "/></g></g><g style="fill:rgb(0%,0%,0%);fill-opacity:1;"><g transform="translate(8.531257, 58.152724)"><path style="stroke:none;" d="M 3.898438 -4.167969 C 3.898438 -3.632812 4.007812 -3.152344 4.222656 -2.671875 C 4.433594 -2.136719 4.703125 -1.710938 5.128906 -1.335938 C 5.503906 -0.910156 5.984375 -0.585938 6.570312 -0.375 C 7.105469 -0.105469 7.746094 0 8.496094 0 C 9.242188 0 9.882812 -0.105469 10.472656 -0.375 C 11.007812 -0.640625 11.488281 -0.960938 11.863281 -1.390625 C 12.234375 -1.816406 12.503906 -2.242188 12.714844 -2.777344 C 12.875 -3.257812 12.984375 -3.738281 12.984375 -4.222656 L 12.984375 -33.609375 C 12.984375 -34.089844 12.875 -34.570312 12.664062 -35.101562 C 12.449219 -35.585938 12.183594 -36.011719 11.808594 -36.4375 C 11.378906 -36.8125 10.898438 -37.132812 10.367188 -37.402344 C 9.832031 -37.667969 9.191406 -37.828125 8.441406 -37.828125 C 7.695312 -37.828125 7 -37.667969 6.464844 -37.402344 C 5.929688 -37.132812 5.449219 -36.8125 5.074219 -36.386719 C 4.648438 -35.957031 4.382812 -35.53125 4.167969 -35.050781 C 3.953125 -34.515625 3.898438 -34.035156 3.898438 -33.609375 Z M 3.898438 -4.167969 "/></g></g><g style="fill:rgb(0%,0%,0%);fill-opacity:1;"><g transform="translate(95.907429, 58.152724)"><path style="stroke:none;" d="M 8.496094 0 L 23.617188 0 C 24.363281 0 25.003906 -0.105469 25.59375 -0.375 C 26.128906 -0.640625 26.609375 -0.960938 26.980469 -1.390625 C 27.355469 -1.816406 27.625 -2.242188 27.835938 -2.777344 C 27.996094 -3.257812 28.105469 -3.738281 28.105469 -4.222656 C 28.105469 -4.703125 27.996094 -5.183594 27.785156 -5.71875 C 27.570312 -6.199219 27.300781 -6.625 26.929688 -7.054688 C 26.5 -7.425781 26.019531 -7.746094 25.484375 -8.015625 C 24.953125 -8.28125 24.3125 -8.441406 23.5625 -8.441406 L 13.625 -8.441406 C 13.519531 -8.441406 13.359375 -8.496094 13.195312 -8.601562 C 12.984375 -8.710938 12.929688 -8.921875 12.929688 -9.242188 L 12.929688 -14.800781 C 12.929688 -15.066406 12.984375 -15.28125 13.195312 -15.441406 C 13.359375 -15.546875 13.519531 -15.65625 13.625 -15.65625 L 20.785156 -15.65625 C 21.53125 -15.65625 22.171875 -15.761719 22.707031 -16.027344 C 23.242188 -16.296875 23.722656 -16.617188 24.097656 -17.042969 C 24.472656 -17.472656 24.738281 -17.898438 24.953125 -18.433594 C 25.164062 -18.914062 25.273438 -19.394531 25.273438 -19.875 C 25.273438 -20.355469 25.164062 -20.835938 24.953125 -21.371094 C 24.738281 -21.851562 24.472656 -22.28125 24.097656 -22.707031 C 23.667969 -23.082031 23.1875 -23.402344 22.65625 -23.667969 C 22.121094 -23.9375 21.480469 -24.097656 20.730469 -24.097656 L 13.570312 -24.097656 C 13.464844 -24.097656 13.304688 -24.148438 13.144531 -24.257812 C 12.929688 -24.363281 12.875 -24.578125 12.875 -24.898438 L 12.875 -28.585938 C 12.875 -28.851562 12.929688 -29.066406 13.144531 -29.226562 C 13.304688 -29.332031 13.464844 -29.441406 13.570312 -29.441406 L 23.507812 -29.441406 C 24.257812 -29.441406 24.898438 -29.546875 25.484375 -29.8125 C 26.019531 -30.082031 26.5 -30.402344 26.875 -30.828125 C 27.25 -31.203125 27.515625 -31.628906 27.730469 -32.164062 C 27.890625 -32.644531 27.996094 -33.125 27.996094 -33.609375 C 27.996094 -34.089844 27.890625 -34.570312 27.675781 -35.101562 C 27.464844 -35.585938 27.195312 -36.011719 26.820312 -36.4375 C 26.394531 -36.8125 25.914062 -37.132812 25.378906 -37.402344 C 24.84375 -37.667969 24.203125 -37.828125 23.457031 -37.828125 L 8.335938 -37.828125 C 7.585938 -37.828125 6.890625 -37.667969 6.359375 -37.402344 C 5.824219 -37.132812 5.34375 -36.8125 4.96875 -36.386719 C 4.542969 -35.957031 4.273438 -35.53125 4.0625 -35.050781 C 3.847656 -34.515625 3.792969 -34.035156 3.792969 -33.609375 L 3.792969 -4.167969 C 3.792969 -3.632812 3.898438 -3.097656 4.113281 -2.617188 C 4.328125 -2.082031 4.648438 -1.65625 5.074219 -1.28125 C 5.503906 -0.855469 5.984375 -0.535156 6.570312 -0.320312 C 7.160156 -0.105469 7.800781 0 8.496094 0 Z M 8.496094 0 "/></g></g></g></svg>